<svg xmlns="http://www.w3.org/2000/svg" xmlns:xlink="http://www.w3.org/1999/xlink" xmlns:lucid="lucid" width="2751" height="1340.5"><g transform="translate(-180 -19.5)" lucid:page-tab-id="0_0"><path d="M0 0h3078.6v1700.82H0z" fill="#fff"/><path d="M1160 208.13a8 8 0 0 1 8-8h684a8 8 0 0 1 8 8v223.5a8 8 0 0 1-8 8h-684a8 8 0 0 1-8-8z" stroke="#333" fill-opacity="0"/><use xlink:href="#a" transform="matrix(1,0,0,1,1168,208.12558162028245) translate(268.4697530864198 39.28888888888884)"/><path d="M200 208a8 8 0 0 1 8-8h644a8 8 0 0 1 8 8v964a8 8 0 0 1-8 8H208a8 8 0 0 1-8-8z" stroke="#333" fill-opacity="0"/><use xlink:href="#b" transform="matrix(1,0,0,1,208,208) translate(273.02530864197536 39.28888888888884)"/><path d="M260 328a8 8 0 0 1 8-8h484a8 8 0 0 1 8 8v144a8 8 0 0 1-8 8H268a8 8 0 0 1-8-8z" stroke="#333" fill-opacity="0"/><use xlink:href="#c" transform="matrix(1,0,0,1,268,328) translate(161.51234567901247 39.28888888888884)"/><path d="M260 548a8 8 0 0 1 8-8h484a8 8 0 0 1 8 8v144a8 8 0 0 1-8 8H268a8 8 0 0 1-8-8z" stroke="#333" fill-opacity="0"/><use xlink:href="#d" transform="matrix(1,0,0,1,268,548) translate(176.51851851851862 39.28888888888884)"/><path d="M260 768a8 8 0 0 1 8-8h484a8 8 0 0 1 8 8v144a8 8 0 0 1-8 8H268a8 8 0 0 1-8-8z" stroke="#333" fill-opacity="0"/><use xlink:href="#e" transform="matrix(1,0,0,1,268,768) translate(82.66172839506194 39.28888888888884)"/><path d="M260 988a8 8 0 0 1 8-8h484a8 8 0 0 1 8 8v144a8 8 0 0 1-8 8H268a8 8 0 0 1-8-8z" stroke="#333" fill-opacity="0"/><use xlink:href="#f" transform="matrix(1,0,0,1,268,988) translate(111.37808641975326 39.28888888888884)"/><path d="M2080 208a8 8 0 0 1 8-8h724a8 8 0 0 1 8 8v1124a8 8 0 0 1-8 8h-724a8 8 0 0 1-8-8z" stroke="#333" fill-opacity="0"/><use xlink:href="#g" transform="matrix(1,0,0,1,2088,208) translate(295.29074074074083 39.28888888888884)"/><path d="M2140 328a8 8 0 0 1 8-8h604a8 8 0 0 1 8 8v144a8 8 0 0 1-8 8h-604a8 8 0 0 1-8-8z" stroke="#333" fill-opacity="0"/><use xlink:href="#h" transform="matrix(1,0,0,1,2148,328) translate(184.8836419753088 39.28888888888884)"/><path d="M2200 1148a8 8 0 0 1 8-8h484a8 8 0 0 1 8 8v144a8 8 0 0 1-8 8h-484a8 8 0 0 1-8-8z" stroke="#333" fill-opacity="0"/><use xlink:href="#i" transform="matrix(1,0,0,1,2208,1148) translate(169.83395061728405 39.28888888888884)"/><path d="M2140 558a8 8 0 0 1 8-8h604a8 8 0 0 1 8 8v514a8 8 0 0 1-8 8h-604a8 8 0 0 1-8-8z" stroke="#333" fill-opacity="0"/><use xlink:href="#j" transform="matrix(1,0,0,1,2148,558) translate(228.46975308641987 39.28888888888884)"/><path d="M2200 668a8 8 0 0 1 8-8h484a8 8 0 0 1 8 8v144a8 8 0 0 1-8 8h-484a8 8 0 0 1-8-8z" stroke="#333" fill-opacity="0"/><use xlink:href="#k" transform="matrix(1,0,0,1,2208,668) translate(101.69228395061745 39.28888888888884)"/><path d="M2200 888a8 8 0 0 1 8-8h484a8 8 0 0 1 8 8v144a8 8 0 0 1-8 8h-484a8 8 0 0 1-8-8z" stroke="#333" fill-opacity="0"/><use xlink:href="#l" transform="matrix(1,0,0,1,2208,888) translate(126.24783950617298 39.28888888888884)"/><path d="M1158.6 319.88H1010a.02.02 0 0 1-.02-.02.02.02 0 0 0-.02-.02H861.4" stroke="#333" fill="none"/><path d="M1141.3 330.06l17.22-10.18-17.22-10.2M878.7 309.66l-17.22 10.18 17.22 10.18M1861 319.88h217.6" stroke="#333" fill="none"/><path d="M1861 320.38h-.5v-1h.5z" stroke="#333" stroke-width=".05" fill="#333"/><path d="M2061.3 330.06l17.22-10.18-17.22-10.2M2450 879v-57.6" stroke="#333" fill="none"/><path d="M2450.5 879.5h-1v-.5h1z" stroke="#333" stroke-width=".05" fill="#333"/><path d="M2460.18 838.7L2450 821.48l-10.18 17.22M510 701v57.6" stroke="#333" fill="none"/><path d="M510.5 701h-1v-.5h1z" stroke="#333" stroke-width=".05" fill="#333"/><path d="M499.82 741.3L510 758.52l10.18-17.22M510 921v57.6" stroke="#333" fill="none"/><path d="M510.5 921h-1v-.5h1z" stroke="#333" stroke-width=".05" fill="#333"/><path d="M499.82 961.3L510 978.52l10.18-17.22M2702.5 510.88v4.1l-.03.02v34" stroke="#333" fill="none"/><path d="M2702.5 481.2l14.84 14.86-14.85 15.15-14.86-15.14z" stroke="#333" fill="#fff"/><path d="M2702.96 549.5h-1v-.5h1z" stroke="#333" stroke-width=".05" fill="#333"/><path d="M2450 1081v57.6" stroke="#333" fill="none"/><path d="M2450.5 1081h-1v-.5h1z" stroke="#333" stroke-width=".05" fill="#333"/><path d="M2439.82 1121.3l10.18 17.22 10.18-17.22M623.2 759v-57.6" stroke="#333" fill="none"/><path d="M623.7 759.5h-1v-.5h1z" stroke="#333" stroke-width=".05" fill="#333"/><path d="M633.37 718.7l-10.18-17.22L613 718.7M761 1060h27.5a12 12 0 0 0 12-12V412a12 12 0 0 0-12-12h-27.1" stroke="#333" fill="none"/><path d="M761 1060.5h-.5v-1h.5z" stroke="#333" stroke-width=".05" fill="#333"/><path d="M778.7 389.82L761.48 400l17.22 10.18" stroke="#333" fill="none"/><path d="M761.4 400h27.1a12 12 0 0 1 12 12v196a12 12 0 0 1-12 12H761" stroke="#333" fill="none"/><path d="M778.7 389.82L761.48 400l17.22 10.18" stroke="#333" fill="none"/><path d="M761 620.5h-.5v-1h.5z" stroke="#333" stroke-width=".05" fill="#333"/><path d="M761.4 400h27.1a12 12 0 0 1 12 12v416a12 12 0 0 1-12 12H761" stroke="#333" fill="none"/><path d="M778.7 389.82L761.48 400l17.22 10.18" stroke="#333" fill="none"/><path d="M761 840.5h-.5v-1h.5z" stroke="#333" stroke-width=".05" fill="#333"/><defs><path d="M96-169c-40 0-48 33-48 73s9 75 48 75c24 0 41-14 43-38l32 2c-6 37-31 61-74 61-59 0-76-41-82-99-10-93 101-131 147-64 4 7 5 14 7 22l-32 3c-4-21-16-35-41-35" id="m"/><path d="M100-194c62-1 85 37 85 99 1 63-27 99-86 99S16-35 15-95c0-66 28-99 85-99zM99-20c44 1 53-31 53-75 0-43-8-75-51-75s-53 32-53 75 10 74 51 75" id="n"/><path d="M117-194c89-4 53 116 60 194h-32v-121c0-31-8-49-39-48C34-167 62-67 57 0H25l-1-190h30c1 10-1 24 2 32 11-22 29-35 61-36" id="o"/><path d="M59-47c-2 24 18 29 38 22v24C64 9 27 4 27-40v-127H5v-23h24l9-43h21v43h35v23H59v120" id="p"/><path d="M114-163C36-179 61-72 57 0H25l-1-190h30c1 12-1 29 2 39 6-27 23-49 58-41v29" id="q"/><path d="M24 0v-261h32V0H24" id="r"/><g id="a"><use transform="matrix(0.13641975308641957,0,0,0.13641975308641957,0,0)" xlink:href="#m"/><use transform="matrix(0.13641975308641957,0,0,0.13641975308641957,24.55555555555552,0)" xlink:href="#n"/><use transform="matrix(0.13641975308641957,0,0,0.13641975308641957,51.839506172839435,0)" xlink:href="#o"/><use transform="matrix(0.13641975308641957,0,0,0.13641975308641957,79.12345679012336,0)" xlink:href="#p"/><use transform="matrix(0.13641975308641957,0,0,0.13641975308641957,92.76543209876532,0)" xlink:href="#q"/><use transform="matrix(0.13641975308641957,0,0,0.13641975308641957,108.99938271604924,0)" xlink:href="#n"/><use transform="matrix(0.13641975308641957,0,0,0.13641975308641957,136.28333333333316,0)" xlink:href="#r"/></g><path d="M108 0H70L1-190h34L89-25l56-165h34" id="s"/><path d="M24-231v-30h32v30H24zM24 0v-190h32V0H24" id="t"/><path d="M100-194c63 0 86 42 84 106H49c0 40 14 67 53 68 26 1 43-12 49-29l28 8c-11 28-37 45-77 45C44 4 14-33 15-96c1-61 26-98 85-98zm52 81c6-60-76-77-97-28-3 7-6 17-6 28h103" id="u"/><path d="M206 0h-36l-40-164L89 0H53L-1-190h32L70-26l43-164h34l41 164 42-164h31" id="v"/><g id="b"><use transform="matrix(0.13641975308641957,0,0,0.13641975308641957,0,0)" xlink:href="#s"/><use transform="matrix(0.13641975308641957,0,0,0.13641975308641957,24.55555555555552,0)" xlink:href="#t"/><use transform="matrix(0.13641975308641957,0,0,0.13641975308641957,35.33271604938267,0)" xlink:href="#u"/><use transform="matrix(0.13641975308641957,0,0,0.13641975308641957,62.61666666666658,0)" xlink:href="#v"/></g><path d="M115-194c55 1 70 41 70 98S169 2 115 4C84 4 66-9 55-30l1 105H24l-1-265h31l2 30c10-21 28-34 59-34zm-8 174c40 0 45-34 45-75s-6-73-45-74c-42 0-51 32-51 76 0 43 10 73 51 73" id="w"/><path d="M84 4C-5 8 30-112 23-190h32v120c0 31 7 50 39 49 72-2 45-101 50-169h31l1 190h-30c-1-10 1-25-2-33-11 22-28 36-60 37" id="x"/><path d="M135-143c-3-34-86-38-87 0 15 53 115 12 119 90S17 21 10-45l28-5c4 36 97 45 98 0-10-56-113-15-118-90-4-57 82-63 122-42 12 7 21 19 24 35" id="y"/><g id="c"><use transform="matrix(0.13641975308641957,0,0,0.13641975308641957,0,0)" xlink:href="#w"/><use transform="matrix(0.13641975308641957,0,0,0.13641975308641957,27.283950617283914,0)" xlink:href="#n"/><use transform="matrix(0.13641975308641957,0,0,0.13641975308641957,54.56790123456783,0)" xlink:href="#w"/><use transform="matrix(0.13641975308641957,0,0,0.13641975308641957,81.85185185185173,0)" xlink:href="#x"/><use transform="matrix(0.13641975308641957,0,0,0.13641975308641957,109.13580246913565,0)" xlink:href="#w"/><use transform="matrix(0.13641975308641957,0,0,0.13641975308641957,136.41975308641958,0)" xlink:href="#y"/></g><path d="M141-36C126-15 110 5 73 4 37 3 15-17 15-53c-1-64 63-63 125-63 3-35-9-54-41-54-24 1-41 7-42 31l-33-3c5-37 33-52 76-52 45 0 72 20 72 64v82c-1 20 7 32 28 27v20c-31 9-61-2-59-35zM48-53c0 20 12 33 32 33 41-3 63-29 60-74-43 2-92-5-92 41" id="z"/><g id="d"><use transform="matrix(0.13641975308641957,0,0,0.13641975308641957,0,0)" xlink:href="#y"/><use transform="matrix(0.13641975308641957,0,0,0.13641975308641957,24.55555555555552,0)" xlink:href="#p"/><use transform="matrix(0.13641975308641957,0,0,0.13641975308641957,38.197530864197475,0)" xlink:href="#z"/><use transform="matrix(0.13641975308641957,0,0,0.13641975308641957,65.48148148148138,0)" xlink:href="#p"/><use transform="matrix(0.13641975308641957,0,0,0.13641975308641957,79.12345679012334,0)" xlink:href="#u"/><use transform="matrix(0.13641975308641957,0,0,0.13641975308641957,106.40740740740725,0)" xlink:href="#y"/></g><path d="M101-234c-31-9-42 10-38 44h38v23H63V0H32v-167H5v-23h27c-7-52 17-82 69-68v24" id="A"/><path d="M210-169c-67 3-38 105-44 169h-31v-121c0-29-5-50-35-48C34-165 62-65 56 0H25l-1-190h30c1 10-1 24 2 32 10-44 99-50 107 0 11-21 27-35 58-36 85-2 47 119 55 194h-31v-121c0-29-5-49-35-48" id="B"/><g id="e"><use transform="matrix(0.13641975308641957,0,0,0.13641975308641957,0,0)" xlink:href="#p"/><use transform="matrix(0.13641975308641957,0,0,0.13641975308641957,13.641975308641957,0)" xlink:href="#n"/><use transform="matrix(0.13641975308641957,0,0,0.13641975308641957,40.92592592592587,0)" xlink:href="#w"/><use transform="matrix(0.13641975308641957,0,0,0.13641975308641957,68.20987654320979,0)" xlink:href="#r"/><use transform="matrix(0.13641975308641957,0,0,0.13641975308641957,78.98703703703694,0)" xlink:href="#u"/><use transform="matrix(0.13641975308641957,0,0,0.13641975308641957,106.27098765432086,0)" xlink:href="#s"/><use transform="matrix(0.13641975308641957,0,0,0.13641975308641957,130.82654320987638,0)" xlink:href="#u"/><use transform="matrix(0.13641975308641957,0,0,0.13641975308641957,158.11049382716027,0)" xlink:href="#r"/><use transform="matrix(0.13641975308641957,0,0,0.13641975308641957,168.88765432098745,0)" xlink:href="#A"/><use transform="matrix(0.13641975308641957,0,0,0.13641975308641957,182.5296296296294,0)" xlink:href="#q"/><use transform="matrix(0.13641975308641957,0,0,0.13641975308641957,198.76358024691334,0)" xlink:href="#z"/><use transform="matrix(0.13641975308641957,0,0,0.13641975308641957,226.04753086419726,0)" xlink:href="#B"/><use transform="matrix(0.13641975308641957,0,0,0.13641975308641957,266.8370370370367,0)" xlink:href="#u"/><use transform="matrix(0.13641975308641957,0,0,0.13641975308641957,294.1209876543206,0)" xlink:href="#y"/></g><path d="M179-190L93 31C79 59 56 82 12 73V49c39 6 53-20 64-50L1-190h34L92-34l54-156h33" id="C"/><g id="f"><use transform="matrix(0.13641975308641957,0,0,0.13641975308641957,0,0)" xlink:href="#x"/><use transform="matrix(0.13641975308641957,0,0,0.13641975308641957,27.283950617283914,0)" xlink:href="#p"/><use transform="matrix(0.13641975308641957,0,0,0.13641975308641957,40.92592592592587,0)" xlink:href="#t"/><use transform="matrix(0.13641975308641957,0,0,0.13641975308641957,51.70308641975302,0)" xlink:href="#r"/><use transform="matrix(0.13641975308641957,0,0,0.13641975308641957,62.48024691358016,0)" xlink:href="#t"/><use transform="matrix(0.13641975308641957,0,0,0.13641975308641957,73.2574074074073,0)" xlink:href="#p"/><use transform="matrix(0.13641975308641957,0,0,0.13641975308641957,86.89938271604926,0)" xlink:href="#C"/><use transform="matrix(0.13641975308641957,0,0,0.13641975308641957,111.45493827160479,0)" xlink:href="#A"/><use transform="matrix(0.13641975308641957,0,0,0.13641975308641957,125.09691358024675,0)" xlink:href="#q"/><use transform="matrix(0.13641975308641957,0,0,0.13641975308641957,141.33086419753067,0)" xlink:href="#z"/><use transform="matrix(0.13641975308641957,0,0,0.13641975308641957,168.6148148148146,0)" xlink:href="#B"/><use transform="matrix(0.13641975308641957,0,0,0.13641975308641957,209.40432098765405,0)" xlink:href="#u"/><use transform="matrix(0.13641975308641957,0,0,0.13641975308641957,236.68827160493797,0)" xlink:href="#y"/></g><path d="M85-194c31 0 48 13 60 33l-1-100h32l1 261h-30c-2-10 0-23-3-31C134-8 116 4 85 4 32 4 16-35 15-94c0-66 23-100 70-100zm9 24c-40 0-46 34-46 75 0 40 6 74 45 74 42 0 51-32 51-76 0-42-9-74-50-73" id="D"/><g id="g"><use transform="matrix(0.13641975308641957,0,0,0.13641975308641957,0,0)" xlink:href="#B"/><use transform="matrix(0.13641975308641957,0,0,0.13641975308641957,40.78950617283945,0)" xlink:href="#n"/><use transform="matrix(0.13641975308641957,0,0,0.13641975308641957,68.07345679012337,0)" xlink:href="#D"/><use transform="matrix(0.13641975308641957,0,0,0.13641975308641957,95.3574074074073,0)" xlink:href="#u"/><use transform="matrix(0.13641975308641957,0,0,0.13641975308641957,122.64135802469121,0)" xlink:href="#r"/></g><g id="h"><use transform="matrix(0.13641975308641957,0,0,0.13641975308641957,0,0)" xlink:href="#z"/><use transform="matrix(0.13641975308641957,0,0,0.13641975308641957,27.283950617283914,0)" xlink:href="#w"/><use transform="matrix(0.13641975308641957,0,0,0.13641975308641957,54.56790123456783,0)" xlink:href="#w"/><use transform="matrix(0.13641975308641957,0,0,0.13641975308641957,81.85185185185173,0)" xlink:href="#r"/><use transform="matrix(0.13641975308641957,0,0,0.13641975308641957,92.62901234567889,0)" xlink:href="#t"/><use transform="matrix(0.13641975308641957,0,0,0.13641975308641957,103.40617283950604,0)" xlink:href="#m"/><use transform="matrix(0.13641975308641957,0,0,0.13641975308641957,127.96172839506156,0)" xlink:href="#z"/><use transform="matrix(0.13641975308641957,0,0,0.13641975308641957,155.24567901234548,0)" xlink:href="#p"/><use transform="matrix(0.13641975308641957,0,0,0.13641975308641957,168.88765432098742,0)" xlink:href="#t"/><use transform="matrix(0.13641975308641957,0,0,0.13641975308641957,179.66481481481458,0)" xlink:href="#n"/><use transform="matrix(0.13641975308641957,0,0,0.13641975308641957,206.9487654320985,0)" xlink:href="#o"/></g><path d="M30-248c87 1 191-15 191 75 0 78-77 80-158 76V0H30v-248zm33 125c57 0 124 11 124-50 0-59-68-47-124-48v98" id="E"/><g id="i"><use transform="matrix(0.13641975308641957,0,0,0.13641975308641957,0,0)" xlink:href="#E"/><use transform="matrix(0.13641975308641957,0,0,0.13641975308641957,32.7407407407407,0)" xlink:href="#z"/><use transform="matrix(0.13641975308641957,0,0,0.13641975308641957,60.02469135802461,0)" xlink:href="#q"/><use transform="matrix(0.13641975308641957,0,0,0.13641975308641957,76.25864197530854,0)" xlink:href="#y"/><use transform="matrix(0.13641975308641957,0,0,0.13641975308641957,100.81419753086405,0)" xlink:href="#u"/><use transform="matrix(0.13641975308641957,0,0,0.13641975308641957,128.09814814814797,0)" xlink:href="#q"/></g><path d="M24-231v-30h32v30H24zM-9 49c24 4 33-6 33-30v-209h32V24c2 40-23 58-65 49V49" id="F"/><g id="j"><use transform="matrix(0.13641975308641957,0,0,0.13641975308641957,0,0)" xlink:href="#w"/><use transform="matrix(0.13641975308641957,0,0,0.13641975308641957,27.283950617283914,0)" xlink:href="#q"/><use transform="matrix(0.13641975308641957,0,0,0.13641975308641957,43.517901234567844,0)" xlink:href="#n"/><use transform="matrix(0.13641975308641957,0,0,0.13641975308641957,70.80185185185175,0)" xlink:href="#F"/><use transform="matrix(0.13641975308641957,0,0,0.13641975308641957,81.5790123456789,0)" xlink:href="#u"/><use transform="matrix(0.13641975308641957,0,0,0.13641975308641957,108.86296296296284,0)" xlink:href="#m"/><use transform="matrix(0.13641975308641957,0,0,0.13641975308641957,133.41851851851834,0)" xlink:href="#p"/></g><path d="M177-190C167-65 218 103 67 71c-23-6-38-20-44-43l32-5c15 47 100 32 89-28v-30C133-14 115 1 83 1 29 1 15-40 15-95c0-56 16-97 71-98 29-1 48 16 59 35 1-10 0-23 2-32h30zM94-22c36 0 50-32 50-73 0-42-14-75-50-75-39 0-46 34-46 75s6 73 46 73" id="G"/><g id="k"><use transform="matrix(0.13641975308641957,0,0,0.13641975308641957,0,0)" xlink:href="#m"/><use transform="matrix(0.13641975308641957,0,0,0.13641975308641957,24.55555555555552,0)" xlink:href="#n"/><use transform="matrix(0.13641975308641957,0,0,0.13641975308641957,51.839506172839435,0)" xlink:href="#o"/><use transform="matrix(0.13641975308641957,0,0,0.13641975308641957,79.12345679012336,0)" xlink:href="#A"/><use transform="matrix(0.13641975308641957,0,0,0.13641975308641957,92.76543209876532,0)" xlink:href="#t"/><use transform="matrix(0.13641975308641957,0,0,0.13641975308641957,103.54259259259246,0)" xlink:href="#G"/><use transform="matrix(0.13641975308641957,0,0,0.13641975308641957,130.82654320987638,0)" xlink:href="#x"/><use transform="matrix(0.13641975308641957,0,0,0.13641975308641957,158.11049382716027,0)" xlink:href="#q"/><use transform="matrix(0.13641975308641957,0,0,0.13641975308641957,174.34444444444424,0)" xlink:href="#z"/><use transform="matrix(0.13641975308641957,0,0,0.13641975308641957,201.62839506172816,0)" xlink:href="#p"/><use transform="matrix(0.13641975308641957,0,0,0.13641975308641957,215.2703703703701,0)" xlink:href="#t"/><use transform="matrix(0.13641975308641957,0,0,0.13641975308641957,226.04753086419726,0)" xlink:href="#n"/><use transform="matrix(0.13641975308641957,0,0,0.13641975308641957,253.33148148148118,0)" xlink:href="#o"/></g><g id="l"><use transform="matrix(0.13641975308641957,0,0,0.13641975308641957,0,0)" xlink:href="#m"/><use transform="matrix(0.13641975308641957,0,0,0.13641975308641957,24.55555555555552,0)" xlink:href="#z"/><use transform="matrix(0.13641975308641957,0,0,0.13641975308641957,51.839506172839435,0)" xlink:href="#r"/><use transform="matrix(0.13641975308641957,0,0,0.13641975308641957,62.61666666666658,0)" xlink:href="#m"/><use transform="matrix(0.13641975308641957,0,0,0.13641975308641957,87.1722222222221,0)" xlink:href="#x"/><use transform="matrix(0.13641975308641957,0,0,0.13641975308641957,114.45617283950602,0)" xlink:href="#r"/><use transform="matrix(0.13641975308641957,0,0,0.13641975308641957,125.23333333333318,0)" xlink:href="#z"/><use transform="matrix(0.13641975308641957,0,0,0.13641975308641957,152.5172839506171,0)" xlink:href="#p"/><use transform="matrix(0.13641975308641957,0,0,0.13641975308641957,166.15925925925904,0)" xlink:href="#t"/><use transform="matrix(0.13641975308641957,0,0,0.13641975308641957,176.93641975308617,0)" xlink:href="#n"/><use transform="matrix(0.13641975308641957,0,0,0.13641975308641957,204.22037037037012,0)" xlink:href="#o"/></g></defs></g></svg>