<svg xmlns="http://www.w3.org/2000/svg" xmlns:xlink="http://www.w3.org/1999/xlink" xmlns:lucid="lucid" width="1885" height="981"><g transform="translate(-2148 -332)" lucid:page-tab-id="0_0"><path d="M0 0h7071.28v7314.52H0z" fill="#fff"/><path d="M2218.5 408a8 8 0 0 1 8-8h1724a8 8 0 0 1 8 8v842.5a8 8 0 0 1-8 8h-1724a8 8 0 0 1-8-8z" stroke="#333" fill-opacity="0"/><use xlink:href="#a" transform="matrix(1,0,0,1,2226.5000750210315,408) translate(793.0623456790124 39.28888888888884)"/><path d="M2238.5 488a8 8 0 0 1 8-8h344a8 8 0 0 1 8 8v206a8 8 0 0 1-8 8h-344a8 8 0 0 1-8-8z" stroke="#333" fill="#fff"/><path d="M2238.5 539.2h360" stroke="#333" fill="none"/><use xlink:href="#b" transform="matrix(1,0,0,1,2246.5000750210315,488) translate(113.57499999999999 14.799999999999999)"/><use xlink:href="#c" transform="matrix(1,0,0,1,2246.5000750210315,488) translate(93.125 36.4)"/><use xlink:href="#d" transform="matrix(1,0,0,1,2250.5000750210315,547.2) translate(1.9250000000000114 55.5)"/><use xlink:href="#e" transform="matrix(1,0,0,1,2250.5000750210315,547.2) translate(10.199999999999989 77.10000000000001)"/><use xlink:href="#f" transform="matrix(1,0,0,1,2250.5000750210315,547.2) translate(57.19999999999999 77.10000000000001)"/><use xlink:href="#g" transform="matrix(1,0,0,1,2250.5000750210315,547.2) translate(175.05 77.10000000000001)"/><use xlink:href="#h" transform="matrix(1,0,0,1,2250.5000750210315,547.2) translate(136.025 98.70000000000002)"/><path d="M2224.33 768a8 8 0 0 1 8-8h372.34a8 8 0 0 1 8 8v248a8 8 0 0 1-8 8h-372.34a8 8 0 0 1-8-8z" stroke="#333" fill="#fff"/><path d="M2224.33 797.6h388.34m-388.34 59.6h388.34" stroke="#333" fill="none"/><use xlink:href="#i" transform="matrix(1,0,0,1,2232.333408354365,768) translate(115.65 14.6)"/><use xlink:href="#j" transform="matrix(1,0,0,1,2236.333408354365,865.2) translate(117.05 25.49999999999998)"/><use xlink:href="#k" transform="matrix(1,0,0,1,2236.333408354365,865.2) translate(159.85 47.09999999999998)"/><use xlink:href="#l" transform="matrix(1,0,0,1,2236.333408354365,865.2) translate(182.5 68.69999999999999)"/><use xlink:href="#m" transform="matrix(1,0,0,1,2236.333408354365,865.2) translate(-13.080246913580396 90.12222222222222)"/><use xlink:href="#n" transform="matrix(1,0,0,1,2236.333408354365,865.2) translate(26.648148148148152 111.45555555555556)"/><use xlink:href="#o" transform="matrix(1,0,0,1,2236.333408354365,865.2) translate(73.06790123456791 111.45555555555556)"/><use xlink:href="#p" transform="matrix(1,0,0,1,2236.333408354365,865.2) translate(189.462962962963 111.45555555555556)"/><use xlink:href="#q" transform="matrix(1,0,0,1,2236.333408354365,865.2) translate(150.91975308641975 132.7888888888889)"/><path d="M2638.5 768a8 8 0 0 1 8-8h344a8 8 0 0 1 8 8v248a8 8 0 0 1-8 8h-344a8 8 0 0 1-8-8z" stroke="#333" fill="#fff"/><path d="M2638.5 797.6h360m-360 70.1h360" stroke="#333" fill="none"/><use xlink:href="#r" transform="matrix(1,0,0,1,2646.5000750210315,768) translate(117.07499999999999 14.6)"/><use xlink:href="#j" transform="matrix(1,0,0,1,2650.5000750210315,875.7) translate(102.55 30.89999999999999)"/><use xlink:href="#k" transform="matrix(1,0,0,1,2650.5000750210315,875.7) translate(145.35 52.49999999999999)"/><use xlink:href="#l" transform="matrix(1,0,0,1,2650.5000750210315,875.7) translate(168 74.1)"/><use xlink:href="#s" transform="matrix(1,0,0,1,2650.5000750210315,875.7) translate(44.87500000000003 95.70000000000002)"/><use xlink:href="#t" transform="matrix(1,0,0,1,2650.5000750210315,875.7) translate(243.17499999999998 95.70000000000002)"/><use xlink:href="#u" transform="matrix(1,0,0,1,2650.5000750210315,875.7) translate(103.67499999999998 117.30000000000001)"/><path d="M3038.5 768a8 8 0 0 1 8-8h344a8 8 0 0 1 8 8v226a8 8 0 0 1-8 8h-344a8 8 0 0 1-8-8z" stroke="#333" fill="#fff"/><path d="M3038.5 797.6h360m-360 59.1h360" stroke="#333" fill="none"/><use xlink:href="#v" transform="matrix(1,0,0,1,3046.5000750210315,768) translate(109.1 14.6)"/><use xlink:href="#j" transform="matrix(1,0,0,1,3050.5000750210315,864.7) translate(102.55 25.39999999999999)"/><use xlink:href="#k" transform="matrix(1,0,0,1,3050.5000750210315,864.7) translate(145.35 46.99999999999999)"/><use xlink:href="#l" transform="matrix(1,0,0,1,3050.5000750210315,864.7) translate(168 68.6)"/><use xlink:href="#w" transform="matrix(1,0,0,1,3050.5000750210315,864.7) translate(34.900000000000006 90.20000000000002)"/><use xlink:href="#x" transform="matrix(1,0,0,1,3050.5000750210315,864.7) translate(253.14999999999998 90.20000000000002)"/><use xlink:href="#y" transform="matrix(1,0,0,1,3050.5000750210315,864.7) translate(107.07499999999999 111.80000000000001)"/><path d="M3458.5 778a8 8 0 0 1 8-8h384a8 8 0 0 1 8 8v206a8 8 0 0 1-8 8h-384a8 8 0 0 1-8-8z" stroke="#333" fill="#fff"/><path d="M3458.5 807.6h400m-400 58.6h400" stroke="#333" fill="none"/><use xlink:href="#z" transform="matrix(1,0,0,1,3466.5000750210315,778) translate(126.1 14.6)"/><use xlink:href="#j" transform="matrix(1,0,0,1,3470.5000750210315,874.2) translate(122.55 24.946639999999995)"/><use xlink:href="#k" transform="matrix(1,0,0,1,3470.5000750210315,874.2) translate(165.35 46.54664)"/><use xlink:href="#l" transform="matrix(1,0,0,1,3470.5000750210315,874.2) translate(188 68.14664)"/><use xlink:href="#A" transform="matrix(1,0,0,1,3470.5000750210315,874.2) translate(3.771275555555576 91.41778666666667)"/><path d="M2638.5 488a8 8 0 0 1 8-8h344a8 8 0 0 1 8 8v203a8 8 0 0 1-8 8h-344a8 8 0 0 1-8-8z" stroke="#333" fill="#fff"/><path d="M2638.5 539.2h360" stroke="#333" fill="none"/><g><use xlink:href="#b" transform="matrix(1,0,0,1,2646.5000750210315,488) translate(113.57499999999999 14.799999999999999)"/><use xlink:href="#B" transform="matrix(1,0,0,1,2646.5000750210315,488) translate(111.125 36.4)"/></g><g><use xlink:href="#C" transform="matrix(1,0,0,1,2650.5000750210315,547.2) translate(39.87500000000003 65.3)"/><use xlink:href="#t" transform="matrix(1,0,0,1,2650.5000750210315,547.2) translate(248.17499999999998 65.3)"/><use xlink:href="#D" transform="matrix(1,0,0,1,2650.5000750210315,547.2) translate(69.17499999999998 86.9)"/><use xlink:href="#E" transform="matrix(1,0,0,1,2650.5000750210315,547.2) translate(171.475 86.9)"/></g><path d="M3038.5 488a8 8 0 0 1 8-8h344a8 8 0 0 1 8 8v203a8 8 0 0 1-8 8h-344a8 8 0 0 1-8-8z" stroke="#333" fill="#fff"/><path d="M3038.5 539.2h360" stroke="#333" fill="none"/><g><use xlink:href="#b" transform="matrix(1,0,0,1,3046.5000750210315,488) translate(113.57499999999999 14.799999999999999)"/><use xlink:href="#F" transform="matrix(1,0,0,1,3046.5000750210315,488) translate(102.6 36.4)"/></g><g><use xlink:href="#w" transform="matrix(1,0,0,1,3050.5000750210315,547.2) translate(34.900000000000006 65.3)"/><use xlink:href="#x" transform="matrix(1,0,0,1,3050.5000750210315,547.2) translate(253.14999999999998 65.3)"/><use xlink:href="#y" transform="matrix(1,0,0,1,3050.5000750210315,547.2) translate(107.07499999999999 86.9)"/></g><path d="M3478.5 488a8 8 0 0 1 8-8h344a8 8 0 0 1 8 8v184a8 8 0 0 1-8 8h-344a8 8 0 0 1-8-8z" stroke="#333" fill="#fff"/><path d="M3478.5 539.2h360" stroke="#333" fill="none"/><g><use xlink:href="#b" transform="matrix(1,0,0,1,3486.5000750210315,488) translate(113.57499999999999 14.799999999999999)"/><use xlink:href="#G" transform="matrix(1,0,0,1,3486.5000750210315,488) translate(101.57499999999999 36.4)"/></g><g><use xlink:href="#H" transform="matrix(1,0,0,1,3490.5000750210315,547.2) translate(-19.203724444444447 67.01778666666667)"/></g><path d="M2818.5 759v-6.08m0-6.1v-12.15m0-6.1v-6.07" stroke="#333" fill="none"/><path d="M2819 759.5h-1v-.5h1z" stroke="#333" stroke-width=".05" fill="#333"/><path d="M2818.5 700.48l12.73 21.52h-25.46z" stroke="#333" fill="#fff"/><path d="M3218.5 759v-6.08m0-6.1v-12.15m0-6.1v-6.07" stroke="#333" fill="none"/><path d="M3219 759.5h-1v-.5h1z" stroke="#333" stroke-width=".05" fill="#333"/><path d="M3218.5 700.48l12.73 21.52h-25.46z" stroke="#333" fill="#fff"/><path d="M3658.5 769v-5.46m0-5.46v-10.9m0-5.47v-10.9m0-5.47v-10.9m0-5.47v-5.46" stroke="#333" fill="none"/><path d="M3659 769.5h-1v-.5h1z" stroke="#333" stroke-width=".05" fill="#333"/><path d="M3658.5 681.48l12.73 21.52h-25.46z" stroke="#333" fill="#fff"/><path d="M2418.5 759v-5.58m0-5.6v-11.15m0-5.6v-5.57" stroke="#333" fill="none"/><path d="M2419 759.5h-1v-.5h1z" stroke="#333" stroke-width=".05" fill="#333"/><path d="M2418.5 703.48l12.73 21.52h-25.46z" stroke="#333" fill="#fff"/><defs><path d="M115-194c55 1 70 41 70 98S169 2 115 4C84 4 66-9 55-30l1 105H24l-1-265h31l2 30c10-21 28-34 59-34zm-8 174c40 0 45-34 45-75s-6-73-45-74c-42 0-51 32-51 76 0 43 10 73 51 73" id="I"/><path d="M141-36C126-15 110 5 73 4 37 3 15-17 15-53c-1-64 63-63 125-63 3-35-9-54-41-54-24 1-41 7-42 31l-33-3c5-37 33-52 76-52 45 0 72 20 72 64v82c-1 20 7 32 28 27v20c-31 9-61-2-59-35zM48-53c0 20 12 33 32 33 41-3 63-29 60-74-43 2-92-5-92 41" id="J"/><path d="M114-163C36-179 61-72 57 0H25l-1-190h30c1 12-1 29 2 39 6-27 23-49 58-41v29" id="K"/><path d="M135-143c-3-34-86-38-87 0 15 53 115 12 119 90S17 21 10-45l28-5c4 36 97 45 98 0-10-56-113-15-118-90-4-57 82-63 122-42 12 7 21 19 24 35" id="L"/><path d="M100-194c63 0 86 42 84 106H49c0 40 14 67 53 68 26 1 43-12 49-29l28 8c-11 28-37 45-77 45C44 4 14-33 15-96c1-61 26-98 85-98zm52 81c6-60-76-77-97-28-3 7-6 17-6 28h103" id="M"/><g id="a"><use transform="matrix(0.13641975308641957,0,0,0.13641975308641957,0,0)" xlink:href="#I"/><use transform="matrix(0.13641975308641957,0,0,0.13641975308641957,27.283950617283914,0)" xlink:href="#J"/><use transform="matrix(0.13641975308641957,0,0,0.13641975308641957,54.56790123456783,0)" xlink:href="#K"/><use transform="matrix(0.13641975308641957,0,0,0.13641975308641957,70.80185185185175,0)" xlink:href="#L"/><use transform="matrix(0.13641975308641957,0,0,0.13641975308641957,95.35740740740727,0)" xlink:href="#M"/><use transform="matrix(0.13641975308641957,0,0,0.13641975308641957,122.6413580246912,0)" xlink:href="#K"/></g><path d="M15-91v-56l181-69v40L49-119l147 57v40" id="N"/><path d="M24 0v-248h52V0H24" id="O"/><path d="M135-194c87-1 58 113 63 194h-50c-7-57 23-157-34-157-59 0-34 97-39 157H25l-1-190h47c2 12-1 28 3 38 12-26 28-41 61-42" id="P"/><path d="M115-3C79 11 28 4 28-45v-112H4v-33h27l15-45h31v45h36v33H77v99c-1 23 16 31 38 25v30" id="Q"/><path d="M185-48c-13 30-37 53-82 52C43 2 14-33 14-96s30-98 90-98c62 0 83 45 84 108H66c0 31 8 55 39 56 18 0 30-7 34-22zm-45-69c5-46-57-63-70-21-2 6-4 13-4 21h74" id="R"/><path d="M135-150c-39-12-60 13-60 57V0H25l-1-190h47c2 13-1 29 3 40 6-28 27-53 61-41v41" id="S"/><path d="M121-226c-27-7-43 5-38 36h38v33H83V0H34v-157H6v-33h28c-9-59 32-81 87-68v32" id="T"/><path d="M133-34C117-15 103 5 69 4 32 3 11-16 11-54c-1-60 55-63 116-61 1-26-3-47-28-47-18 1-26 9-28 27l-52-2c7-38 36-58 82-57s74 22 75 68l1 82c-1 14 12 18 25 15v27c-30 8-71 5-69-32zm-48 3c29 0 43-24 42-57-32 0-66-3-65 30 0 17 8 27 23 27" id="U"/><path d="M190-63c-7 42-38 67-86 67-59 0-84-38-90-98-12-110 154-137 174-36l-49 2c-2-19-15-32-35-32-30 0-35 28-38 64-6 74 65 87 74 30" id="V"/><path d="M15-22v-40l146-57-146-57v-40l181 69v56" id="W"/><g id="b"><use transform="matrix(0.05,0,0,0.05,0,0)" xlink:href="#N"/><use transform="matrix(0.05,0,0,0.05,10.5,0)" xlink:href="#N"/><use transform="matrix(0.05,0,0,0.05,21,0)" xlink:href="#O"/><use transform="matrix(0.05,0,0,0.05,26,0)" xlink:href="#P"/><use transform="matrix(0.05,0,0,0.05,36.95,0)" xlink:href="#Q"/><use transform="matrix(0.05,0,0,0.05,42.900000000000006,0)" xlink:href="#R"/><use transform="matrix(0.05,0,0,0.05,52.900000000000006,0)" xlink:href="#S"/><use transform="matrix(0.05,0,0,0.05,59.900000000000006,0)" xlink:href="#T"/><use transform="matrix(0.05,0,0,0.05,65.85000000000001,0)" xlink:href="#U"/><use transform="matrix(0.05,0,0,0.05,75.85000000000001,0)" xlink:href="#V"/><use transform="matrix(0.05,0,0,0.05,85.85000000000001,0)" xlink:href="#R"/><use transform="matrix(0.05,0,0,0.05,95.85000000000001,0)" xlink:href="#W"/><use transform="matrix(0.05,0,0,0.05,106.35000000000001,0)" xlink:href="#W"/></g><path d="M67-125c0 53 21 87 73 88 37 1 54-22 65-47l45 17C233-25 199 4 140 4 58 4 20-42 15-125 8-235 124-281 211-232c18 10 29 29 36 50l-46 12c-8-25-30-41-62-41-52 0-71 34-72 86" id="X"/><path d="M25 0v-261h50V0H25" id="Y"/><path d="M85 4C-2 5 27-109 22-190h50c7 57-23 150 33 157 60-5 35-97 40-157h50l1 190h-47c-2-12 1-28-3-38-12 25-28 42-61 42" id="Z"/><path d="M25-224v-37h50v37H25zM25 0v-190h50V0H25" id="aa"/><path d="M110-194c64 0 96 36 96 99 0 64-35 99-97 99-61 0-95-36-95-99 0-62 34-99 96-99zm-1 164c35 0 45-28 45-65 0-40-10-65-43-65-34 0-45 26-45 65 0 36 10 65 43 65" id="ab"/><path d="M24-248c93 1 206-16 204 79-1 75-69 88-152 82V0H24v-248zm52 121c47 0 100 7 100-41 0-47-54-39-100-39v80" id="ac"/><path d="M137-138c1-29-70-34-71-4 15 46 118 7 119 86 1 83-164 76-172 9l43-7c4 19 20 25 44 25 33 8 57-30 24-41C81-84 22-81 20-136c-2-80 154-74 161-7" id="ad"/><g id="c"><use transform="matrix(0.05,0,0,0.05,0,0)" xlink:href="#O"/><use transform="matrix(0.05,0,0,0.05,5,0)" xlink:href="#X"/><use transform="matrix(0.05,0,0,0.05,17.950000000000003,0)" xlink:href="#U"/><use transform="matrix(0.05,0,0,0.05,27.950000000000003,0)" xlink:href="#Y"/><use transform="matrix(0.05,0,0,0.05,32.95,0)" xlink:href="#V"/><use transform="matrix(0.05,0,0,0.05,42.95,0)" xlink:href="#Z"/><use transform="matrix(0.05,0,0,0.05,53.900000000000006,0)" xlink:href="#Y"/><use transform="matrix(0.05,0,0,0.05,58.900000000000006,0)" xlink:href="#U"/><use transform="matrix(0.05,0,0,0.05,68.9,0)" xlink:href="#Q"/><use transform="matrix(0.05,0,0,0.05,74.85000000000001,0)" xlink:href="#aa"/><use transform="matrix(0.05,0,0,0.05,79.85000000000001,0)" xlink:href="#ab"/><use transform="matrix(0.05,0,0,0.05,90.80000000000001,0)" xlink:href="#P"/><use transform="matrix(0.05,0,0,0.05,101.75000000000001,0)" xlink:href="#ac"/><use transform="matrix(0.05,0,0,0.05,113.75,0)" xlink:href="#U"/><use transform="matrix(0.05,0,0,0.05,123.75,0)" xlink:href="#S"/><use transform="matrix(0.05,0,0,0.05,130.75,0)" xlink:href="#ad"/><use transform="matrix(0.05,0,0,0.05,140.75,0)" xlink:href="#R"/><use transform="matrix(0.05,0,0,0.05,150.75,0)" xlink:href="#S"/></g><path d="M118-107v75H92v-75H18v-26h74v-75h26v75h74v26h-74" id="ae"/><path d="M96-169c-40 0-48 33-48 73s9 75 48 75c24 0 41-14 43-38l32 2c-6 37-31 61-74 61-59 0-76-41-82-99-10-93 101-131 147-64 4 7 5 14 7 22l-32 3c-4-21-16-35-41-35" id="af"/><path d="M106-169C34-169 62-67 57 0H25v-261h32l-1 103c12-21 28-36 61-36 89 0 53 116 60 194h-32v-121c2-32-8-49-39-48" id="ag"/><path d="M143 0L79-87 56-68V0H24v-261h32v163l83-92h37l-77 82L181 0h-38" id="ah"/><path d="M-5 72V49h209v23H-5" id="ai"/><path d="M108 0H70L1-190h34L89-25l56-165h34" id="aj"/><path d="M24 0v-261h32V0H24" id="ak"/><path d="M24-231v-30h32v30H24zM24 0v-190h32V0H24" id="al"/><path d="M85-194c31 0 48 13 60 33l-1-100h32l1 261h-30c-2-10 0-23-3-31C134-8 116 4 85 4 32 4 16-35 15-94c0-66 23-100 70-100zm9 24c-40 0-46 34-46 75 0 40 6 74 45 74 42 0 51-32 51-76 0-42-9-74-50-73" id="am"/><path d="M59-47c-2 24 18 29 38 22v24C64 9 27 4 27-40v-127H5v-23h24l9-43h21v43h35v23H59v120" id="an"/><path d="M179-190L93 31C79 59 56 82 12 73V49c39 6 53-20 64-50L1-190h34L92-34l54-156h33" id="ao"/><path d="M100-194c62-1 85 37 85 99 1 63-27 99-86 99S16-35 15-95c0-66 28-99 85-99zM99-20c44 1 53-31 53-75 0-43-8-75-51-75s-53 32-53 75 10 74 51 75" id="ap"/><path d="M101-234c-31-9-42 10-38 44h38v23H63V0H32v-167H5v-23h27c-7-52 17-82 69-68v24" id="aq"/><path d="M84 4C-5 8 30-112 23-190h32v120c0 31 7 50 39 49 72-2 45-101 50-169h31l1 190h-30c-1-10 1-25-2-33-11 22-28 36-60 37" id="ar"/><path d="M117-194c89-4 53 116 60 194h-32v-121c0-31-8-49-39-48C34-167 62-67 57 0H25l-1-190h30c1 10-1 24 2 32 11-22 29-35 61-36" id="as"/><path d="M87 75C49 33 22-17 22-94c0-76 28-126 65-167h31c-38 41-64 92-64 168S80 34 118 75H87" id="at"/><path d="M33-154v-36h34v36H33zM33 0v-36h34V0H33" id="au"/><g id="d"><use transform="matrix(0.05,0,0,0.05,0,0)" xlink:href="#ae"/><use transform="matrix(0.05,0,0,0.05,10.5,0)" xlink:href="#af"/><use transform="matrix(0.05,0,0,0.05,19.5,0)" xlink:href="#ag"/><use transform="matrix(0.05,0,0,0.05,29.5,0)" xlink:href="#M"/><use transform="matrix(0.05,0,0,0.05,39.5,0)" xlink:href="#af"/><use transform="matrix(0.05,0,0,0.05,48.5,0)" xlink:href="#ah"/><use transform="matrix(0.05,0,0,0.05,57.5,0)" xlink:href="#ai"/><use transform="matrix(0.05,0,0,0.05,67.5,0)" xlink:href="#aj"/><use transform="matrix(0.05,0,0,0.05,76.5,0)" xlink:href="#J"/><use transform="matrix(0.05,0,0,0.05,86.5,0)" xlink:href="#ak"/><use transform="matrix(0.05,0,0,0.05,90.45,0)" xlink:href="#al"/><use transform="matrix(0.05,0,0,0.05,94.4,0)" xlink:href="#am"/><use transform="matrix(0.05,0,0,0.05,104.4,0)" xlink:href="#al"/><use transform="matrix(0.05,0,0,0.05,108.35000000000001,0)" xlink:href="#an"/><use transform="matrix(0.05,0,0,0.05,113.35000000000001,0)" xlink:href="#ao"/><use transform="matrix(0.05,0,0,0.05,122.35000000000001,0)" xlink:href="#ai"/><use transform="matrix(0.05,0,0,0.05,132.35000000000002,0)" xlink:href="#ap"/><use transform="matrix(0.05,0,0,0.05,142.35000000000002,0)" xlink:href="#aq"/><use transform="matrix(0.05,0,0,0.05,147.35000000000002,0)" xlink:href="#ai"/><use transform="matrix(0.05,0,0,0.05,157.35000000000002,0)" xlink:href="#af"/><use transform="matrix(0.05,0,0,0.05,166.35000000000002,0)" xlink:href="#J"/><use transform="matrix(0.05,0,0,0.05,176.35000000000002,0)" xlink:href="#ak"/><use transform="matrix(0.05,0,0,0.05,180.3,0)" xlink:href="#af"/><use transform="matrix(0.05,0,0,0.05,189.3,0)" xlink:href="#ar"/><use transform="matrix(0.05,0,0,0.05,199.3,0)" xlink:href="#ak"/><use transform="matrix(0.05,0,0,0.05,203.25,0)" xlink:href="#J"/><use transform="matrix(0.05,0,0,0.05,213.25,0)" xlink:href="#an"/><use transform="matrix(0.05,0,0,0.05,218.25,0)" xlink:href="#al"/><use transform="matrix(0.05,0,0,0.05,222.19999999999996,0)" xlink:href="#ap"/><use transform="matrix(0.05,0,0,0.05,232.19999999999996,0)" xlink:href="#as"/><use transform="matrix(0.05,0,0,0.05,242.19999999999996,0)" xlink:href="#ai"/><use transform="matrix(0.05,0,0,0.05,252.19999999999996,0)" xlink:href="#L"/><use transform="matrix(0.05,0,0,0.05,261.2,0)" xlink:href="#an"/><use transform="matrix(0.05,0,0,0.05,266.2,0)" xlink:href="#M"/><use transform="matrix(0.05,0,0,0.05,276.2,0)" xlink:href="#I"/><use transform="matrix(0.05,0,0,0.05,286.2,0)" xlink:href="#at"/><use transform="matrix(0.05,0,0,0.05,292.15,0)" xlink:href="#I"/><use transform="matrix(0.05,0,0,0.05,302.15,0)" xlink:href="#J"/><use transform="matrix(0.05,0,0,0.05,312.15,0)" xlink:href="#an"/><use transform="matrix(0.05,0,0,0.05,317.15,0)" xlink:href="#ag"/><use transform="matrix(0.05,0,0,0.05,327.15,0)" xlink:href="#au"/></g><path d="M30-248c87 1 191-15 191 75 0 78-77 80-158 76V0H30v-248zm33 125c57 0 124 11 124-50 0-59-68-47-124-48v98" id="av"/><path d="M68-38c1 34 0 65-14 84H32c9-13 17-26 17-46H33v-38h35" id="aw"/><g id="e"><use transform="matrix(0.05,0,0,0.05,0,0)" xlink:href="#av"/><use transform="matrix(0.05,0,0,0.05,12,0)" xlink:href="#J"/><use transform="matrix(0.05,0,0,0.05,22,0)" xlink:href="#an"/><use transform="matrix(0.05,0,0,0.05,27,0)" xlink:href="#ag"/><use transform="matrix(0.05,0,0,0.05,37,0)" xlink:href="#aw"/></g><path d="M177-190C167-65 218 103 67 71c-23-6-38-20-44-43l32-5c15 47 100 32 89-28v-30C133-14 115 1 83 1 29 1 15-40 15-95c0-56 16-97 71-98 29-1 48 16 59 35 1-10 0-23 2-32h30zM94-22c36 0 50-32 50-73 0-42-14-75-50-75-39 0-46 34-46 75s6 73 46 73" id="ax"/><g id="f"><use transform="matrix(0.05,0,0,0.05,0,0)" xlink:href="#L"/><use transform="matrix(0.05,0,0,0.05,9,0)" xlink:href="#an"/><use transform="matrix(0.05,0,0,0.05,14,0)" xlink:href="#J"/><use transform="matrix(0.05,0,0,0.05,24,0)" xlink:href="#K"/><use transform="matrix(0.05,0,0,0.05,29.950000000000003,0)" xlink:href="#an"/><use transform="matrix(0.05,0,0,0.05,34.95,0)" xlink:href="#al"/><use transform="matrix(0.05,0,0,0.05,38.900000000000006,0)" xlink:href="#as"/><use transform="matrix(0.05,0,0,0.05,48.900000000000006,0)" xlink:href="#ax"/><use transform="matrix(0.05,0,0,0.05,58.900000000000006,0)" xlink:href="#ai"/><use transform="matrix(0.05,0,0,0.05,68.9,0)" xlink:href="#I"/><use transform="matrix(0.05,0,0,0.05,78.9,0)" xlink:href="#ap"/><use transform="matrix(0.05,0,0,0.05,88.9,0)" xlink:href="#al"/><use transform="matrix(0.05,0,0,0.05,92.85000000000001,0)" xlink:href="#as"/><use transform="matrix(0.05,0,0,0.05,102.85000000000001,0)" xlink:href="#an"/><use transform="matrix(0.05,0,0,0.05,107.85000000000001,0)" xlink:href="#au"/></g><path d="M212-179c-10-28-35-45-73-45-59 0-87 40-87 99 0 60 29 101 89 101 43 0 62-24 78-52l27 14C228-24 195 4 139 4 59 4 22-46 18-125c-6-104 99-153 187-111 19 9 31 26 39 46" id="ay"/><path d="M33-261c38 41 65 92 65 168S71 34 33 75H2C39 34 66-17 66-93S39-220 2-261h31" id="az"/><g id="g"><use transform="matrix(0.05,0,0,0.05,0,0)" xlink:href="#ay"/><use transform="matrix(0.05,0,0,0.05,12.950000000000001,0)" xlink:href="#J"/><use transform="matrix(0.05,0,0,0.05,22.950000000000003,0)" xlink:href="#ak"/><use transform="matrix(0.05,0,0,0.05,26.900000000000002,0)" xlink:href="#af"/><use transform="matrix(0.05,0,0,0.05,35.900000000000006,0)" xlink:href="#ar"/><use transform="matrix(0.05,0,0,0.05,45.900000000000006,0)" xlink:href="#ak"/><use transform="matrix(0.05,0,0,0.05,49.85000000000001,0)" xlink:href="#J"/><use transform="matrix(0.05,0,0,0.05,59.85,0)" xlink:href="#an"/><use transform="matrix(0.05,0,0,0.05,64.85000000000001,0)" xlink:href="#al"/><use transform="matrix(0.05,0,0,0.05,68.80000000000001,0)" xlink:href="#ap"/><use transform="matrix(0.05,0,0,0.05,78.80000000000001,0)" xlink:href="#as"/><use transform="matrix(0.05,0,0,0.05,88.80000000000001,0)" xlink:href="#av"/><use transform="matrix(0.05,0,0,0.05,100.80000000000001,0)" xlink:href="#ag"/><use transform="matrix(0.05,0,0,0.05,110.80000000000001,0)" xlink:href="#J"/><use transform="matrix(0.05,0,0,0.05,120.80000000000001,0)" xlink:href="#L"/><use transform="matrix(0.05,0,0,0.05,129.8,0)" xlink:href="#M"/><use transform="matrix(0.05,0,0,0.05,139.8,0)" xlink:href="#az"/><use transform="matrix(0.05,0,0,0.05,145.75,0)" xlink:href="#au"/></g><path d="M115-194c53 0 69 39 70 98 0 66-23 100-70 100C84 3 66-7 56-30L54 0H23l1-261h32v101c10-23 28-34 59-34zm-8 174c40 0 45-34 45-75 0-40-5-75-45-74-42 0-51 32-51 76 0 43 10 73 51 73" id="aA"/><g id="h"><use transform="matrix(0.05,0,0,0.05,0,0)" xlink:href="#aA"/><use transform="matrix(0.05,0,0,0.05,10,0)" xlink:href="#ap"/><use transform="matrix(0.05,0,0,0.05,20,0)" xlink:href="#ap"/><use transform="matrix(0.05,0,0,0.05,30,0)" xlink:href="#ak"/><use transform="matrix(0.05,0,0,0.05,33.95,0)" xlink:href="#M"/><use transform="matrix(0.05,0,0,0.05,43.95,0)" xlink:href="#J"/><use transform="matrix(0.05,0,0,0.05,53.95,0)" xlink:href="#as"/></g><g id="i"><use transform="matrix(0.05,0,0,0.05,0,0)" xlink:href="#ay"/><use transform="matrix(0.05,0,0,0.05,12.950000000000001,0)" xlink:href="#J"/><use transform="matrix(0.05,0,0,0.05,22.950000000000003,0)" xlink:href="#ak"/><use transform="matrix(0.05,0,0,0.05,26.900000000000002,0)" xlink:href="#af"/><use transform="matrix(0.05,0,0,0.05,35.900000000000006,0)" xlink:href="#ar"/><use transform="matrix(0.05,0,0,0.05,45.900000000000006,0)" xlink:href="#ak"/><use transform="matrix(0.05,0,0,0.05,49.85000000000001,0)" xlink:href="#J"/><use transform="matrix(0.05,0,0,0.05,59.85,0)" xlink:href="#an"/><use transform="matrix(0.05,0,0,0.05,64.85000000000001,0)" xlink:href="#al"/><use transform="matrix(0.05,0,0,0.05,68.80000000000001,0)" xlink:href="#ap"/><use transform="matrix(0.05,0,0,0.05,78.80000000000001,0)" xlink:href="#as"/><use transform="matrix(0.05,0,0,0.05,88.80000000000001,0)" xlink:href="#av"/><use transform="matrix(0.05,0,0,0.05,100.80000000000001,0)" xlink:href="#J"/><use transform="matrix(0.05,0,0,0.05,110.80000000000001,0)" xlink:href="#K"/><use transform="matrix(0.05,0,0,0.05,116.75,0)" xlink:href="#L"/><use transform="matrix(0.05,0,0,0.05,125.75,0)" xlink:href="#M"/><use transform="matrix(0.05,0,0,0.05,135.75,0)" xlink:href="#K"/></g><path d="M18-100v-36l175-74v27L42-118l151 64v27" id="aB"/><path d="M18-27v-27l151-64-151-65v-27l175 74v36" id="aC"/><g id="j"><use transform="matrix(0.05,0,0,0.05,0,0)" xlink:href="#aB"/><use transform="matrix(0.05,0,0,0.05,10.5,0)" xlink:href="#aB"/><use transform="matrix(0.05,0,0,0.05,21,0)" xlink:href="#af"/><use transform="matrix(0.05,0,0,0.05,30,0)" xlink:href="#ap"/><use transform="matrix(0.05,0,0,0.05,40,0)" xlink:href="#as"/><use transform="matrix(0.05,0,0,0.05,50,0)" xlink:href="#L"/><use transform="matrix(0.05,0,0,0.05,59,0)" xlink:href="#an"/><use transform="matrix(0.05,0,0,0.05,64,0)" xlink:href="#K"/><use transform="matrix(0.05,0,0,0.05,69.95,0)" xlink:href="#ar"/><use transform="matrix(0.05,0,0,0.05,79.95,0)" xlink:href="#af"/><use transform="matrix(0.05,0,0,0.05,88.95,0)" xlink:href="#an"/><use transform="matrix(0.05,0,0,0.05,93.95,0)" xlink:href="#ap"/><use transform="matrix(0.05,0,0,0.05,103.95,0)" xlink:href="#K"/><use transform="matrix(0.05,0,0,0.05,109.9,0)" xlink:href="#aC"/><use transform="matrix(0.05,0,0,0.05,120.4,0)" xlink:href="#aC"/></g><g id="k"><use transform="matrix(0.05,0,0,0.05,0,0)" xlink:href="#ae"/><use transform="matrix(0.05,0,0,0.05,10.5,0)" xlink:href="#al"/><use transform="matrix(0.05,0,0,0.05,14.449999999999998,0)" xlink:href="#as"/><use transform="matrix(0.05,0,0,0.05,24.45,0)" xlink:href="#al"/><use transform="matrix(0.05,0,0,0.05,28.399999999999995,0)" xlink:href="#an"/><use transform="matrix(0.05,0,0,0.05,33.4,0)" xlink:href="#at"/><use transform="matrix(0.05,0,0,0.05,39.35,0)" xlink:href="#az"/></g><path d="M24-231v-30h32v30H24zM-9 49c24 4 33-6 33-30v-209h32V24c2 40-23 58-65 49V49" id="aD"/><g id="m"><use transform="matrix(0.04938271604938272,0,0,0.04938271604938272,0,0)" xlink:href="#ae"/><use transform="matrix(0.04938271604938272,0,0,0.04938271604938272,10.370370370370372,0)" xlink:href="#af"/><use transform="matrix(0.04938271604938272,0,0,0.04938271604938272,19.25925925925926,0)" xlink:href="#ag"/><use transform="matrix(0.04938271604938272,0,0,0.04938271604938272,29.135802469135804,0)" xlink:href="#M"/><use transform="matrix(0.04938271604938272,0,0,0.04938271604938272,39.01234567901235,0)" xlink:href="#af"/><use transform="matrix(0.04938271604938272,0,0,0.04938271604938272,47.90123456790124,0)" xlink:href="#ah"/><use transform="matrix(0.04938271604938272,0,0,0.04938271604938272,56.79012345679013,0)" xlink:href="#ai"/><use transform="matrix(0.04938271604938272,0,0,0.04938271604938272,66.66666666666667,0)" xlink:href="#aj"/><use transform="matrix(0.04938271604938272,0,0,0.04938271604938272,75.55555555555556,0)" xlink:href="#J"/><use transform="matrix(0.04938271604938272,0,0,0.04938271604938272,85.4320987654321,0)" xlink:href="#ak"/><use transform="matrix(0.04938271604938272,0,0,0.04938271604938272,89.33333333333334,0)" xlink:href="#al"/><use transform="matrix(0.04938271604938272,0,0,0.04938271604938272,93.23456790123458,0)" xlink:href="#am"/><use transform="matrix(0.04938271604938272,0,0,0.04938271604938272,103.11111111111111,0)" xlink:href="#al"/><use transform="matrix(0.04938271604938272,0,0,0.04938271604938272,107.01234567901238,0)" xlink:href="#an"/><use transform="matrix(0.04938271604938272,0,0,0.04938271604938272,111.95061728395062,0)" xlink:href="#ao"/><use transform="matrix(0.04938271604938272,0,0,0.04938271604938272,120.83950617283952,0)" xlink:href="#ai"/><use transform="matrix(0.04938271604938272,0,0,0.04938271604938272,130.71604938271605,0)" xlink:href="#ap"/><use transform="matrix(0.04938271604938272,0,0,0.04938271604938272,140.5925925925926,0)" xlink:href="#aq"/><use transform="matrix(0.04938271604938272,0,0,0.04938271604938272,145.5308641975309,0)" xlink:href="#ai"/><use transform="matrix(0.04938271604938272,0,0,0.04938271604938272,155.40740740740745,0)" xlink:href="#af"/><use transform="matrix(0.04938271604938272,0,0,0.04938271604938272,164.29629629629633,0)" xlink:href="#J"/><use transform="matrix(0.04938271604938272,0,0,0.04938271604938272,174.17283950617286,0)" xlink:href="#ak"/><use transform="matrix(0.04938271604938272,0,0,0.04938271604938272,178.0740740740741,0)" xlink:href="#af"/><use transform="matrix(0.04938271604938272,0,0,0.04938271604938272,186.962962962963,0)" xlink:href="#ar"/><use transform="matrix(0.04938271604938272,0,0,0.04938271604938272,196.83950617283955,0)" xlink:href="#ak"/><use transform="matrix(0.04938271604938272,0,0,0.04938271604938272,200.7407407407408,0)" xlink:href="#J"/><use transform="matrix(0.04938271604938272,0,0,0.04938271604938272,210.6172839506173,0)" xlink:href="#an"/><use transform="matrix(0.04938271604938272,0,0,0.04938271604938272,215.55555555555563,0)" xlink:href="#al"/><use transform="matrix(0.04938271604938272,0,0,0.04938271604938272,219.45679012345684,0)" xlink:href="#ap"/><use transform="matrix(0.04938271604938272,0,0,0.04938271604938272,229.33333333333334,0)" xlink:href="#as"/><use transform="matrix(0.04938271604938272,0,0,0.04938271604938272,239.20987654320993,0)" xlink:href="#ai"/><use transform="matrix(0.04938271604938272,0,0,0.04938271604938272,249.0864197530865,0)" xlink:href="#L"/><use transform="matrix(0.04938271604938272,0,0,0.04938271604938272,257.9753086419754,0)" xlink:href="#an"/><use transform="matrix(0.04938271604938272,0,0,0.04938271604938272,262.9135802469137,0)" xlink:href="#M"/><use transform="matrix(0.04938271604938272,0,0,0.04938271604938272,272.79012345679024,0)" xlink:href="#I"/><use transform="matrix(0.04938271604938272,0,0,0.04938271604938272,282.6666666666668,0)" xlink:href="#at"/><use transform="matrix(0.04938271604938272,0,0,0.04938271604938272,288.54320987654336,0)" xlink:href="#I"/><use transform="matrix(0.04938271604938272,0,0,0.04938271604938272,298.4197530864199,0)" xlink:href="#K"/><use transform="matrix(0.04938271604938272,0,0,0.04938271604938272,304.2962962962965,0)" xlink:href="#ap"/><use transform="matrix(0.04938271604938272,0,0,0.04938271604938272,314.17283950617303,0)" xlink:href="#aD"/><use transform="matrix(0.04938271604938272,0,0,0.04938271604938272,318.07407407407425,0)" xlink:href="#M"/><use transform="matrix(0.04938271604938272,0,0,0.04938271604938272,327.9506172839508,0)" xlink:href="#af"/><use transform="matrix(0.04938271604938272,0,0,0.04938271604938272,336.8395061728397,0)" xlink:href="#an"/><use transform="matrix(0.04938271604938272,0,0,0.04938271604938272,341.777777777778,0)" xlink:href="#ai"/><use transform="matrix(0.04938271604938272,0,0,0.04938271604938272,351.65432098765456,0)" xlink:href="#I"/><use transform="matrix(0.04938271604938272,0,0,0.04938271604938272,361.5308641975311,0)" xlink:href="#J"/><use transform="matrix(0.04938271604938272,0,0,0.04938271604938272,371.4074074074077,0)" xlink:href="#an"/><use transform="matrix(0.04938271604938272,0,0,0.04938271604938272,376.34567901234595,0)" xlink:href="#ag"/><use transform="matrix(0.04938271604938272,0,0,0.04938271604938272,386.2222222222225,0)" xlink:href="#au"/></g><g id="n"><use transform="matrix(0.04938271604938272,0,0,0.04938271604938272,0,0)" xlink:href="#av"/><use transform="matrix(0.04938271604938272,0,0,0.04938271604938272,11.851851851851853,0)" xlink:href="#J"/><use transform="matrix(0.04938271604938272,0,0,0.04938271604938272,21.7283950617284,0)" xlink:href="#an"/><use transform="matrix(0.04938271604938272,0,0,0.04938271604938272,26.666666666666668,0)" xlink:href="#ag"/><use transform="matrix(0.04938271604938272,0,0,0.04938271604938272,36.543209876543216,0)" xlink:href="#aw"/></g><g id="o"><use transform="matrix(0.04938271604938272,0,0,0.04938271604938272,0,0)" xlink:href="#L"/><use transform="matrix(0.04938271604938272,0,0,0.04938271604938272,8.88888888888889,0)" xlink:href="#an"/><use transform="matrix(0.04938271604938272,0,0,0.04938271604938272,13.827160493827162,0)" xlink:href="#J"/><use transform="matrix(0.04938271604938272,0,0,0.04938271604938272,23.703703703703706,0)" xlink:href="#K"/><use transform="matrix(0.04938271604938272,0,0,0.04938271604938272,29.58024691358025,0)" xlink:href="#an"/><use transform="matrix(0.04938271604938272,0,0,0.04938271604938272,34.51851851851852,0)" xlink:href="#al"/><use transform="matrix(0.04938271604938272,0,0,0.04938271604938272,38.41975308641975,0)" xlink:href="#as"/><use transform="matrix(0.04938271604938272,0,0,0.04938271604938272,48.2962962962963,0)" xlink:href="#ax"/><use transform="matrix(0.04938271604938272,0,0,0.04938271604938272,58.17283950617284,0)" xlink:href="#ai"/><use transform="matrix(0.04938271604938272,0,0,0.04938271604938272,68.0493827160494,0)" xlink:href="#I"/><use transform="matrix(0.04938271604938272,0,0,0.04938271604938272,77.92592592592594,0)" xlink:href="#ap"/><use transform="matrix(0.04938271604938272,0,0,0.04938271604938272,87.80246913580248,0)" xlink:href="#al"/><use transform="matrix(0.04938271604938272,0,0,0.04938271604938272,91.70370370370372,0)" xlink:href="#as"/><use transform="matrix(0.04938271604938272,0,0,0.04938271604938272,101.58024691358028,0)" xlink:href="#an"/><use transform="matrix(0.04938271604938272,0,0,0.04938271604938272,106.51851851851853,0)" xlink:href="#au"/></g><g id="p"><use transform="matrix(0.04938271604938272,0,0,0.04938271604938272,0,0)" xlink:href="#ay"/><use transform="matrix(0.04938271604938272,0,0,0.04938271604938272,12.790123456790125,0)" xlink:href="#J"/><use transform="matrix(0.04938271604938272,0,0,0.04938271604938272,22.66666666666667,0)" xlink:href="#ak"/><use transform="matrix(0.04938271604938272,0,0,0.04938271604938272,26.567901234567902,0)" xlink:href="#af"/><use transform="matrix(0.04938271604938272,0,0,0.04938271604938272,35.4567901234568,0)" xlink:href="#ar"/><use transform="matrix(0.04938271604938272,0,0,0.04938271604938272,45.33333333333334,0)" xlink:href="#ak"/><use transform="matrix(0.04938271604938272,0,0,0.04938271604938272,49.23456790123458,0)" xlink:href="#J"/><use transform="matrix(0.04938271604938272,0,0,0.04938271604938272,59.111111111111114,0)" xlink:href="#an"/><use transform="matrix(0.04938271604938272,0,0,0.04938271604938272,64.0493827160494,0)" xlink:href="#al"/><use transform="matrix(0.04938271604938272,0,0,0.04938271604938272,67.95061728395063,0)" xlink:href="#ap"/><use transform="matrix(0.04938271604938272,0,0,0.04938271604938272,77.82716049382718,0)" xlink:href="#as"/><use transform="matrix(0.04938271604938272,0,0,0.04938271604938272,87.70370370370372,0)" xlink:href="#av"/><use transform="matrix(0.04938271604938272,0,0,0.04938271604938272,99.55555555555557,0)" xlink:href="#ag"/><use transform="matrix(0.04938271604938272,0,0,0.04938271604938272,109.4320987654321,0)" xlink:href="#J"/><use transform="matrix(0.04938271604938272,0,0,0.04938271604938272,119.30864197530865,0)" xlink:href="#L"/><use transform="matrix(0.04938271604938272,0,0,0.04938271604938272,128.19753086419755,0)" xlink:href="#M"/><use transform="matrix(0.04938271604938272,0,0,0.04938271604938272,138.07407407407408,0)" xlink:href="#az"/><use transform="matrix(0.04938271604938272,0,0,0.04938271604938272,143.9506172839506,0)" xlink:href="#au"/></g><g id="q"><use transform="matrix(0.04938271604938272,0,0,0.04938271604938272,0,0)" xlink:href="#aA"/><use transform="matrix(0.04938271604938272,0,0,0.04938271604938272,9.876543209876544,0)" xlink:href="#ap"/><use transform="matrix(0.04938271604938272,0,0,0.04938271604938272,19.75308641975309,0)" xlink:href="#ap"/><use transform="matrix(0.04938271604938272,0,0,0.04938271604938272,29.629629629629633,0)" xlink:href="#ak"/><use transform="matrix(0.04938271604938272,0,0,0.04938271604938272,33.53086419753087,0)" xlink:href="#M"/><use transform="matrix(0.04938271604938272,0,0,0.04938271604938272,43.40740740740741,0)" xlink:href="#J"/><use transform="matrix(0.04938271604938272,0,0,0.04938271604938272,53.283950617283956,0)" xlink:href="#as"/></g><path d="M140-251c81 0 123 46 123 126C263-46 219 4 140 4 59 4 17-45 17-125s42-126 123-126zm0 227c63 0 89-41 89-101s-29-99-89-99c-61 0-89 39-89 99S79-25 140-24" id="aE"/><g id="r"><use transform="matrix(0.05,0,0,0.05,0,0)" xlink:href="#ay"/><use transform="matrix(0.05,0,0,0.05,12.950000000000001,0)" xlink:href="#ar"/><use transform="matrix(0.05,0,0,0.05,22.950000000000003,0)" xlink:href="#an"/><use transform="matrix(0.05,0,0,0.05,27.950000000000003,0)" xlink:href="#aE"/><use transform="matrix(0.05,0,0,0.05,41.95,0)" xlink:href="#ar"/><use transform="matrix(0.05,0,0,0.05,51.95,0)" xlink:href="#an"/><use transform="matrix(0.05,0,0,0.05,56.95,0)" xlink:href="#av"/><use transform="matrix(0.05,0,0,0.05,68.95,0)" xlink:href="#J"/><use transform="matrix(0.05,0,0,0.05,78.95,0)" xlink:href="#K"/><use transform="matrix(0.05,0,0,0.05,84.9,0)" xlink:href="#L"/><use transform="matrix(0.05,0,0,0.05,93.9,0)" xlink:href="#M"/><use transform="matrix(0.05,0,0,0.05,103.9,0)" xlink:href="#K"/></g><g id="s"><use transform="matrix(0.05,0,0,0.05,0,0)" xlink:href="#ae"/><use transform="matrix(0.05,0,0,0.05,10.5,0)" xlink:href="#J"/><use transform="matrix(0.05,0,0,0.05,20.5,0)" xlink:href="#K"/><use transform="matrix(0.05,0,0,0.05,26.450000000000003,0)" xlink:href="#L"/><use transform="matrix(0.05,0,0,0.05,35.45,0)" xlink:href="#M"/><use transform="matrix(0.05,0,0,0.05,45.45,0)" xlink:href="#ai"/><use transform="matrix(0.05,0,0,0.05,55.45,0)" xlink:href="#af"/><use transform="matrix(0.05,0,0,0.05,64.45,0)" xlink:href="#ar"/><use transform="matrix(0.05,0,0,0.05,74.45,0)" xlink:href="#an"/><use transform="matrix(0.05,0,0,0.05,79.45,0)" xlink:href="#ai"/><use transform="matrix(0.05,0,0,0.05,89.45,0)" xlink:href="#ap"/><use transform="matrix(0.05,0,0,0.05,99.45,0)" xlink:href="#ar"/><use transform="matrix(0.05,0,0,0.05,109.45,0)" xlink:href="#an"/><use transform="matrix(0.05,0,0,0.05,114.45,0)" xlink:href="#ai"/><use transform="matrix(0.05,0,0,0.05,124.45,0)" xlink:href="#aq"/><use transform="matrix(0.05,0,0,0.05,129.45,0)" xlink:href="#al"/><use transform="matrix(0.05,0,0,0.05,133.39999999999998,0)" xlink:href="#ak"/><use transform="matrix(0.05,0,0,0.05,137.34999999999997,0)" xlink:href="#M"/><use transform="matrix(0.05,0,0,0.05,147.34999999999997,0)" xlink:href="#at"/><use transform="matrix(0.05,0,0,0.05,153.29999999999995,0)" xlink:href="#I"/><use transform="matrix(0.05,0,0,0.05,163.29999999999995,0)" xlink:href="#J"/><use transform="matrix(0.05,0,0,0.05,173.29999999999995,0)" xlink:href="#an"/><use transform="matrix(0.05,0,0,0.05,178.29999999999995,0)" xlink:href="#ag"/><use transform="matrix(0.05,0,0,0.05,188.29999999999995,0)" xlink:href="#au"/></g><g id="t"><use transform="matrix(0.05,0,0,0.05,0,0)" xlink:href="#av"/><use transform="matrix(0.05,0,0,0.05,12,0)" xlink:href="#J"/><use transform="matrix(0.05,0,0,0.05,22,0)" xlink:href="#an"/><use transform="matrix(0.05,0,0,0.05,27,0)" xlink:href="#ag"/><use transform="matrix(0.05,0,0,0.05,37,0)" xlink:href="#az"/><use transform="matrix(0.05,0,0,0.05,42.95,0)" xlink:href="#au"/></g><path d="M30 0v-248h33v221h125V0H30" id="aF"/><path d="M127-220V0H93v-220H8v-28h204v28h-85" id="aG"/><g id="u"><use transform="matrix(0.05,0,0,0.05,0,0)" xlink:href="#aF"/><use transform="matrix(0.05,0,0,0.05,10,0)" xlink:href="#al"/><use transform="matrix(0.05,0,0,0.05,13.949999999999998,0)" xlink:href="#L"/><use transform="matrix(0.05,0,0,0.05,22.95,0)" xlink:href="#an"/><use transform="matrix(0.05,0,0,0.05,27.950000000000003,0)" xlink:href="#aB"/><use transform="matrix(0.05,0,0,0.05,38.45,0)" xlink:href="#aG"/><use transform="matrix(0.05,0,0,0.05,48.75000000000001,0)" xlink:href="#K"/><use transform="matrix(0.05,0,0,0.05,54.70000000000002,0)" xlink:href="#J"/><use transform="matrix(0.05,0,0,0.05,64.70000000000002,0)" xlink:href="#aq"/><use transform="matrix(0.05,0,0,0.05,69.35000000000002,0)" xlink:href="#aq"/><use transform="matrix(0.05,0,0,0.05,74.35000000000002,0)" xlink:href="#al"/><use transform="matrix(0.05,0,0,0.05,78.30000000000003,0)" xlink:href="#af"/><use transform="matrix(0.05,0,0,0.05,87.30000000000003,0)" xlink:href="#ay"/><use transform="matrix(0.05,0,0,0.05,100.25000000000003,0)" xlink:href="#M"/><use transform="matrix(0.05,0,0,0.05,110.25000000000003,0)" xlink:href="#ak"/><use transform="matrix(0.05,0,0,0.05,114.20000000000003,0)" xlink:href="#ak"/><use transform="matrix(0.05,0,0,0.05,118.15000000000003,0)" xlink:href="#aC"/></g><g id="v"><use transform="matrix(0.05,0,0,0.05,0,0)" xlink:href="#ay"/><use transform="matrix(0.05,0,0,0.05,12.950000000000001,0)" xlink:href="#J"/><use transform="matrix(0.05,0,0,0.05,22.950000000000003,0)" xlink:href="#an"/><use transform="matrix(0.05,0,0,0.05,27.950000000000003,0)" xlink:href="#M"/><use transform="matrix(0.05,0,0,0.05,37.95,0)" xlink:href="#ax"/><use transform="matrix(0.05,0,0,0.05,47.95,0)" xlink:href="#ap"/><use transform="matrix(0.05,0,0,0.05,57.95,0)" xlink:href="#K"/><use transform="matrix(0.05,0,0,0.05,63.900000000000006,0)" xlink:href="#ao"/><use transform="matrix(0.05,0,0,0.05,72.9,0)" xlink:href="#av"/><use transform="matrix(0.05,0,0,0.05,84.9,0)" xlink:href="#J"/><use transform="matrix(0.05,0,0,0.05,94.9,0)" xlink:href="#K"/><use transform="matrix(0.05,0,0,0.05,100.85000000000001,0)" xlink:href="#L"/><use transform="matrix(0.05,0,0,0.05,109.85000000000001,0)" xlink:href="#M"/><use transform="matrix(0.05,0,0,0.05,119.85000000000001,0)" xlink:href="#K"/></g><g id="w"><use transform="matrix(0.05,0,0,0.05,0,0)" xlink:href="#ae"/><use transform="matrix(0.05,0,0,0.05,10.5,0)" xlink:href="#I"/><use transform="matrix(0.05,0,0,0.05,20.5,0)" xlink:href="#J"/><use transform="matrix(0.05,0,0,0.05,30.5,0)" xlink:href="#K"/><use transform="matrix(0.05,0,0,0.05,36.45,0)" xlink:href="#L"/><use transform="matrix(0.05,0,0,0.05,45.45,0)" xlink:href="#M"/><use transform="matrix(0.05,0,0,0.05,55.45,0)" xlink:href="#ai"/><use transform="matrix(0.05,0,0,0.05,65.45,0)" xlink:href="#af"/><use transform="matrix(0.05,0,0,0.05,74.45,0)" xlink:href="#J"/><use transform="matrix(0.05,0,0,0.05,84.45,0)" xlink:href="#an"/><use transform="matrix(0.05,0,0,0.05,89.45,0)" xlink:href="#M"/><use transform="matrix(0.05,0,0,0.05,99.45,0)" xlink:href="#ax"/><use transform="matrix(0.05,0,0,0.05,109.45,0)" xlink:href="#ap"/><use transform="matrix(0.05,0,0,0.05,119.45,0)" xlink:href="#K"/><use transform="matrix(0.05,0,0,0.05,125.4,0)" xlink:href="#ao"/><use transform="matrix(0.05,0,0,0.05,134.4,0)" xlink:href="#ai"/><use transform="matrix(0.05,0,0,0.05,144.4,0)" xlink:href="#aq"/><use transform="matrix(0.05,0,0,0.05,149.4,0)" xlink:href="#al"/><use transform="matrix(0.05,0,0,0.05,153.35,0)" xlink:href="#ak"/><use transform="matrix(0.05,0,0,0.05,157.29999999999998,0)" xlink:href="#M"/><use transform="matrix(0.05,0,0,0.05,167.29999999999998,0)" xlink:href="#at"/><use transform="matrix(0.05,0,0,0.05,173.24999999999997,0)" xlink:href="#I"/><use transform="matrix(0.05,0,0,0.05,183.24999999999997,0)" xlink:href="#J"/><use transform="matrix(0.05,0,0,0.05,193.24999999999997,0)" xlink:href="#an"/><use transform="matrix(0.05,0,0,0.05,198.24999999999997,0)" xlink:href="#ag"/><use transform="matrix(0.05,0,0,0.05,208.24999999999997,0)" xlink:href="#au"/></g><g id="x"><use transform="matrix(0.05,0,0,0.05,0,0)" xlink:href="#av"/><use transform="matrix(0.05,0,0,0.05,12,0)" xlink:href="#J"/><use transform="matrix(0.05,0,0,0.05,22,0)" xlink:href="#an"/><use transform="matrix(0.05,0,0,0.05,27,0)" xlink:href="#ag"/><use transform="matrix(0.05,0,0,0.05,37,0)" xlink:href="#az"/><use transform="matrix(0.05,0,0,0.05,42.95,0)" xlink:href="#au"/></g><g id="y"><use transform="matrix(0.05,0,0,0.05,0,0)" xlink:href="#aF"/><use transform="matrix(0.05,0,0,0.05,10,0)" xlink:href="#al"/><use transform="matrix(0.05,0,0,0.05,13.949999999999998,0)" xlink:href="#L"/><use transform="matrix(0.05,0,0,0.05,22.95,0)" xlink:href="#an"/><use transform="matrix(0.05,0,0,0.05,27.950000000000003,0)" xlink:href="#aB"/><use transform="matrix(0.05,0,0,0.05,38.45,0)" xlink:href="#ay"/><use transform="matrix(0.05,0,0,0.05,51.400000000000006,0)" xlink:href="#J"/><use transform="matrix(0.05,0,0,0.05,61.400000000000006,0)" xlink:href="#an"/><use transform="matrix(0.05,0,0,0.05,66.4,0)" xlink:href="#M"/><use transform="matrix(0.05,0,0,0.05,76.4,0)" xlink:href="#ax"/><use transform="matrix(0.05,0,0,0.05,86.4,0)" xlink:href="#ap"/><use transform="matrix(0.05,0,0,0.05,96.4,0)" xlink:href="#K"/><use transform="matrix(0.05,0,0,0.05,102.35000000000001,0)" xlink:href="#ao"/><use transform="matrix(0.05,0,0,0.05,111.35000000000001,0)" xlink:href="#aC"/></g><path d="M185-189c-5-48-123-54-124 2 14 75 158 14 163 119 3 78-121 87-175 55-17-10-28-26-33-46l33-7c5 56 141 63 141-1 0-78-155-14-162-118-5-82 145-84 179-34 5 7 8 16 11 25" id="aH"/><path d="M240 0l2-218c-23 76-54 145-80 218h-23L58-218 59 0H30v-248h44l77 211c21-75 51-140 76-211h43V0h-30" id="aI"/><path d="M30-248c118-7 216 8 213 122C240-48 200 0 122 0H30v-248zM63-27c89 8 146-16 146-99s-60-101-146-95v194" id="aJ"/><g id="z"><use transform="matrix(0.05,0,0,0.05,0,0)" xlink:href="#aE"/><use transform="matrix(0.05,0,0,0.05,14,0)" xlink:href="#aH"/><use transform="matrix(0.05,0,0,0.05,26,0)" xlink:href="#aI"/><use transform="matrix(0.05,0,0,0.05,40.95,0)" xlink:href="#aJ"/><use transform="matrix(0.05,0,0,0.05,53.900000000000006,0)" xlink:href="#J"/><use transform="matrix(0.05,0,0,0.05,63.900000000000006,0)" xlink:href="#an"/><use transform="matrix(0.05,0,0,0.05,68.9,0)" xlink:href="#J"/><use transform="matrix(0.05,0,0,0.05,78.9,0)" xlink:href="#av"/><use transform="matrix(0.05,0,0,0.05,90.9,0)" xlink:href="#J"/><use transform="matrix(0.05,0,0,0.05,100.9,0)" xlink:href="#K"/><use transform="matrix(0.05,0,0,0.05,106.85000000000001,0)" xlink:href="#L"/><use transform="matrix(0.05,0,0,0.05,115.85000000000001,0)" xlink:href="#M"/><use transform="matrix(0.05,0,0,0.05,125.85000000000001,0)" xlink:href="#K"/></g><path d="M210-169c-67 3-38 105-44 169h-31v-121c0-29-5-50-35-48C34-165 62-65 56 0H25l-1-190h30c1 10-1 24 2 32 10-44 99-50 107 0 11-21 27-35 58-36 85-2 47 119 55 194h-31v-121c0-29-5-49-35-48" id="aK"/><path d="M63-220v92h138v28H63V0H30v-248h175v28H63" id="aL"/><g id="A"><use transform="matrix(0.05,0,0,0.05,0,0)" xlink:href="#ae"/><use transform="matrix(0.05580259259259259,0,0,0.05580259259259259,10.5,0)" xlink:href="#I"/><use transform="matrix(0.05580259259259259,0,0,0.05580259259259259,21.66051851851852,0)" xlink:href="#J"/><use transform="matrix(0.05580259259259259,0,0,0.05580259259259259,32.82103703703704,0)" xlink:href="#K"/><use transform="matrix(0.05580259259259259,0,0,0.05580259259259259,39.46154555555555,0)" xlink:href="#L"/><use transform="matrix(0.05580259259259259,0,0,0.05580259259259259,49.50601222222222,0)" xlink:href="#M"/><use transform="matrix(0.05580259259259259,0,0,0.05580259259259259,60.66653074074075,0)" xlink:href="#ai"/><use transform="matrix(0.05580259259259259,0,0,0.05580259259259259,71.82704925925925,0)" xlink:href="#ap"/><use transform="matrix(0.05580259259259259,0,0,0.05580259259259259,82.98756777777777,0)" xlink:href="#L"/><use transform="matrix(0.05580259259259259,0,0,0.05580259259259259,93.03203444444443,0)" xlink:href="#aK"/><use transform="matrix(0.05580259259259259,0,0,0.05580259259259259,109.71700962962962,0)" xlink:href="#ai"/><use transform="matrix(0.05580259259259259,0,0,0.05580259259259259,120.87752814814814,0)" xlink:href="#am"/><use transform="matrix(0.05580259259259259,0,0,0.05580259259259259,132.03804666666665,0)" xlink:href="#J"/><use transform="matrix(0.05580259259259259,0,0,0.05580259259259259,143.19856518518517,0)" xlink:href="#an"/><use transform="matrix(0.05580259259259259,0,0,0.05580259259259259,148.77882444444444,0)" xlink:href="#J"/><use transform="matrix(0.05580259259259259,0,0,0.05580259259259259,159.93934296296297,0)" xlink:href="#ai"/><use transform="matrix(0.05580259259259259,0,0,0.05580259259259259,171.0998614814815,0)" xlink:href="#aq"/><use transform="matrix(0.05580259259259259,0,0,0.05580259259259259,176.68012074074076,0)" xlink:href="#al"/><use transform="matrix(0.05580259259259259,0,0,0.05580259259259259,181.08852555555558,0)" xlink:href="#ak"/><use transform="matrix(0.05580259259259259,0,0,0.05580259259259259,185.4969303703704,0)" xlink:href="#M"/><use transform="matrix(0.05,0,0,0.05,196.65744888888892,0)" xlink:href="#I"/><use transform="matrix(0.05,0,0,0.05,206.6574488888889,0)" xlink:href="#J"/><use transform="matrix(0.05,0,0,0.05,216.6574488888889,0)" xlink:href="#an"/><use transform="matrix(0.05,0,0,0.05,221.6574488888889,0)" xlink:href="#ag"/><use transform="matrix(0.05,0,0,0.05,231.6574488888889,0)" xlink:href="#au"/><use transform="matrix(0.05,0,0,0.05,236.6574488888889,0)" xlink:href="#av"/><use transform="matrix(0.05,0,0,0.05,248.6574488888889,0)" xlink:href="#J"/><use transform="matrix(0.05,0,0,0.05,258.6574488888889,0)" xlink:href="#an"/><use transform="matrix(0.05,0,0,0.05,263.6574488888889,0)" xlink:href="#ag"/><use transform="matrix(0.05,0,0,0.05,273.6574488888889,0)" xlink:href="#az"/><use transform="matrix(0.05,0,0,0.05,279.6074488888889,0)" xlink:href="#au"/><use transform="matrix(0.05,0,0,0.05,284.6074488888889,0)" xlink:href="#aJ"/><use transform="matrix(0.05,0,0,0.05,297.55744888888887,0)" xlink:href="#J"/><use transform="matrix(0.05,0,0,0.05,307.55744888888887,0)" xlink:href="#an"/><use transform="matrix(0.05,0,0,0.05,312.55744888888887,0)" xlink:href="#J"/><use transform="matrix(0.05,0,0,0.05,322.55744888888887,0)" xlink:href="#aL"/><use transform="matrix(0.05,0,0,0.05,333.50744888888886,0)" xlink:href="#J"/><use transform="matrix(0.05,0,0,0.05,343.50744888888886,0)" xlink:href="#aK"/><use transform="matrix(0.05,0,0,0.05,358.45744888888885,0)" xlink:href="#M"/></g><path d="M140-251c80 0 125 45 125 126S219 4 139 4C58 4 15-44 15-125s44-126 125-126zm-1 214c52 0 73-35 73-88 0-50-21-86-72-86-52 0-73 35-73 86s22 88 72 88" id="aM"/><g id="B"><use transform="matrix(0.05,0,0,0.05,0,0)" xlink:href="#O"/><use transform="matrix(0.05,0,0,0.05,5,0)" xlink:href="#X"/><use transform="matrix(0.05,0,0,0.05,17.950000000000003,0)" xlink:href="#Z"/><use transform="matrix(0.05,0,0,0.05,28.900000000000006,0)" xlink:href="#Q"/><use transform="matrix(0.05,0,0,0.05,34.85000000000001,0)" xlink:href="#aM"/><use transform="matrix(0.05,0,0,0.05,48.85000000000001,0)" xlink:href="#Z"/><use transform="matrix(0.05,0,0,0.05,59.80000000000001,0)" xlink:href="#Q"/><use transform="matrix(0.05,0,0,0.05,65.75000000000001,0)" xlink:href="#ac"/><use transform="matrix(0.05,0,0,0.05,77.75000000000001,0)" xlink:href="#U"/><use transform="matrix(0.05,0,0,0.05,87.75000000000001,0)" xlink:href="#S"/><use transform="matrix(0.05,0,0,0.05,94.75000000000001,0)" xlink:href="#ad"/><use transform="matrix(0.05,0,0,0.05,104.75,0)" xlink:href="#R"/><use transform="matrix(0.05,0,0,0.05,114.75,0)" xlink:href="#S"/></g><g id="C"><use transform="matrix(0.05,0,0,0.05,0,0)" xlink:href="#ae"/><use transform="matrix(0.05,0,0,0.05,10.5,0)" xlink:href="#I"/><use transform="matrix(0.05,0,0,0.05,20.5,0)" xlink:href="#J"/><use transform="matrix(0.05,0,0,0.05,30.5,0)" xlink:href="#K"/><use transform="matrix(0.05,0,0,0.05,36.45,0)" xlink:href="#L"/><use transform="matrix(0.05,0,0,0.05,45.45,0)" xlink:href="#M"/><use transform="matrix(0.05,0,0,0.05,55.45,0)" xlink:href="#ai"/><use transform="matrix(0.05,0,0,0.05,65.45,0)" xlink:href="#af"/><use transform="matrix(0.05,0,0,0.05,74.45,0)" xlink:href="#ar"/><use transform="matrix(0.05,0,0,0.05,84.45,0)" xlink:href="#an"/><use transform="matrix(0.05,0,0,0.05,89.45,0)" xlink:href="#ai"/><use transform="matrix(0.05,0,0,0.05,99.45,0)" xlink:href="#ap"/><use transform="matrix(0.05,0,0,0.05,109.45,0)" xlink:href="#ar"/><use transform="matrix(0.05,0,0,0.05,119.45,0)" xlink:href="#an"/><use transform="matrix(0.05,0,0,0.05,124.45,0)" xlink:href="#ai"/><use transform="matrix(0.05,0,0,0.05,134.45,0)" xlink:href="#aq"/><use transform="matrix(0.05,0,0,0.05,139.45,0)" xlink:href="#al"/><use transform="matrix(0.05,0,0,0.05,143.39999999999998,0)" xlink:href="#ak"/><use transform="matrix(0.05,0,0,0.05,147.34999999999997,0)" xlink:href="#M"/><use transform="matrix(0.05,0,0,0.05,157.34999999999997,0)" xlink:href="#at"/><use transform="matrix(0.05,0,0,0.05,163.29999999999995,0)" xlink:href="#I"/><use transform="matrix(0.05,0,0,0.05,173.29999999999995,0)" xlink:href="#J"/><use transform="matrix(0.05,0,0,0.05,183.29999999999995,0)" xlink:href="#an"/><use transform="matrix(0.05,0,0,0.05,188.29999999999995,0)" xlink:href="#ag"/><use transform="matrix(0.05,0,0,0.05,198.29999999999995,0)" xlink:href="#au"/></g><path d="M190 0L58-211 59 0H30v-248h39L202-35l-2-213h31V0h-41" id="aN"/><g id="D"><use transform="matrix(0.05,0,0,0.05,0,0)" xlink:href="#aF"/><use transform="matrix(0.05,0,0,0.05,10,0)" xlink:href="#al"/><use transform="matrix(0.05,0,0,0.05,13.949999999999998,0)" xlink:href="#L"/><use transform="matrix(0.05,0,0,0.05,22.95,0)" xlink:href="#an"/><use transform="matrix(0.05,0,0,0.05,27.950000000000003,0)" xlink:href="#aB"/><use transform="matrix(0.05,0,0,0.05,38.45,0)" xlink:href="#at"/><use transform="matrix(0.05,0,0,0.05,44.400000000000006,0)" xlink:href="#aN"/><use transform="matrix(0.05,0,0,0.05,57.35,0)" xlink:href="#J"/><use transform="matrix(0.05,0,0,0.05,67.35000000000001,0)" xlink:href="#aK"/><use transform="matrix(0.05,0,0,0.05,82.30000000000001,0)" xlink:href="#M"/><use transform="matrix(0.05,0,0,0.05,92.30000000000001,0)" xlink:href="#aw"/></g><path d="M143 4C61 4 22-44 18-125c-5-107 100-154 193-111 17 8 29 25 37 43l-32 9c-13-25-37-40-76-40-61 0-88 39-88 99 0 61 29 100 91 101 35 0 62-11 79-27v-45h-74v-28h105v86C228-13 192 4 143 4" id="aO"/><g id="E"><use transform="matrix(0.05,0,0,0.05,0,0)" xlink:href="#aO"/><use transform="matrix(0.05,0,0,0.05,14,0)" xlink:href="#M"/><use transform="matrix(0.05,0,0,0.05,24,0)" xlink:href="#ap"/><use transform="matrix(0.05,0,0,0.05,34,0)" xlink:href="#aK"/><use transform="matrix(0.05,0,0,0.05,48.95,0)" xlink:href="#M"/><use transform="matrix(0.05,0,0,0.05,58.95,0)" xlink:href="#an"/><use transform="matrix(0.05,0,0,0.05,63.95,0)" xlink:href="#K"/><use transform="matrix(0.05,0,0,0.05,69.9,0)" xlink:href="#ao"/><use transform="matrix(0.05,0,0,0.05,78.9,0)" xlink:href="#az"/><use transform="matrix(0.05,0,0,0.05,84.85000000000001,0)" xlink:href="#aC"/></g><path d="M195-6C206 82 75 100 31 46c-4-6-6-13-8-21l49-6c3 16 16 24 34 25 40 0 42-37 40-79-11 22-30 35-61 35-53 0-70-43-70-97 0-56 18-96 73-97 30 0 46 14 59 34l2-30h47zm-90-29c32 0 41-27 41-63 0-35-9-62-40-62-32 0-39 29-40 63 0 36 9 62 39 62" id="aP"/><path d="M123 10C108 53 80 86 19 72V37c35 8 53-11 59-39L3-190h52l48 148c12-52 28-100 44-148h51" id="aQ"/><g id="F"><use transform="matrix(0.05,0,0,0.05,0,0)" xlink:href="#O"/><use transform="matrix(0.05,0,0,0.05,5,0)" xlink:href="#X"/><use transform="matrix(0.05,0,0,0.05,17.950000000000003,0)" xlink:href="#U"/><use transform="matrix(0.05,0,0,0.05,27.950000000000003,0)" xlink:href="#Q"/><use transform="matrix(0.05,0,0,0.05,33.900000000000006,0)" xlink:href="#R"/><use transform="matrix(0.05,0,0,0.05,43.900000000000006,0)" xlink:href="#aP"/><use transform="matrix(0.05,0,0,0.05,54.85,0)" xlink:href="#ab"/><use transform="matrix(0.05,0,0,0.05,65.80000000000001,0)" xlink:href="#S"/><use transform="matrix(0.05,0,0,0.05,72.80000000000001,0)" xlink:href="#aQ"/><use transform="matrix(0.05,0,0,0.05,82.80000000000001,0)" xlink:href="#ac"/><use transform="matrix(0.05,0,0,0.05,94.80000000000001,0)" xlink:href="#U"/><use transform="matrix(0.05,0,0,0.05,104.80000000000001,0)" xlink:href="#S"/><use transform="matrix(0.05,0,0,0.05,111.80000000000001,0)" xlink:href="#ad"/><use transform="matrix(0.05,0,0,0.05,121.80000000000001,0)" xlink:href="#R"/><use transform="matrix(0.05,0,0,0.05,131.8,0)" xlink:href="#S"/></g><path d="M169-182c-1-43-94-46-97-3 18 66 151 10 154 114 3 95-165 93-204 36-6-8-10-19-12-30l50-8c3 46 112 56 116 5-17-69-150-10-154-114-4-87 153-88 188-35 5 8 8 18 10 28" id="aR"/><path d="M230 0l2-204L168 0h-37L68-204 70 0H24v-248h70l56 185 57-185h69V0h-46" id="aS"/><path d="M24-248c120-7 223 5 221 122C244-46 201 0 124 0H24v-248zM76-40c74 7 117-18 117-86 0-67-45-88-117-82v168" id="aT"/><g id="G"><use transform="matrix(0.05,0,0,0.05,0,0)" xlink:href="#O"/><use transform="matrix(0.05,0,0,0.05,5,0)" xlink:href="#aM"/><use transform="matrix(0.05,0,0,0.05,19,0)" xlink:href="#aR"/><use transform="matrix(0.05,0,0,0.05,31,0)" xlink:href="#aS"/><use transform="matrix(0.05,0,0,0.05,45.95,0)" xlink:href="#aT"/><use transform="matrix(0.05,0,0,0.05,58.900000000000006,0)" xlink:href="#U"/><use transform="matrix(0.05,0,0,0.05,68.9,0)" xlink:href="#Q"/><use transform="matrix(0.05,0,0,0.05,74.85000000000001,0)" xlink:href="#U"/><use transform="matrix(0.05,0,0,0.05,84.85000000000001,0)" xlink:href="#ac"/><use transform="matrix(0.05,0,0,0.05,96.85000000000001,0)" xlink:href="#U"/><use transform="matrix(0.05,0,0,0.05,106.85000000000001,0)" xlink:href="#S"/><use transform="matrix(0.05,0,0,0.05,113.85000000000001,0)" xlink:href="#ad"/><use transform="matrix(0.05,0,0,0.05,123.85000000000001,0)" xlink:href="#R"/><use transform="matrix(0.05,0,0,0.05,133.85000000000002,0)" xlink:href="#S"/></g><g id="H"><use transform="matrix(0.05,0,0,0.05,0,0)" xlink:href="#ae"/><use transform="matrix(0.05580259259259259,0,0,0.05580259259259259,10.5,0)" xlink:href="#I"/><use transform="matrix(0.05580259259259259,0,0,0.05580259259259259,21.66051851851852,0)" xlink:href="#J"/><use transform="matrix(0.05580259259259259,0,0,0.05580259259259259,32.82103703703704,0)" xlink:href="#K"/><use transform="matrix(0.05580259259259259,0,0,0.05580259259259259,39.46154555555555,0)" xlink:href="#L"/><use transform="matrix(0.05580259259259259,0,0,0.05580259259259259,49.50601222222222,0)" xlink:href="#M"/><use transform="matrix(0.05580259259259259,0,0,0.05580259259259259,60.66653074074075,0)" xlink:href="#ai"/><use transform="matrix(0.05580259259259259,0,0,0.05580259259259259,71.82704925925925,0)" xlink:href="#ap"/><use transform="matrix(0.05580259259259259,0,0,0.05580259259259259,82.98756777777777,0)" xlink:href="#L"/><use transform="matrix(0.05580259259259259,0,0,0.05580259259259259,93.03203444444443,0)" xlink:href="#aK"/><use transform="matrix(0.05580259259259259,0,0,0.05580259259259259,109.71700962962962,0)" xlink:href="#ai"/><use transform="matrix(0.05580259259259259,0,0,0.05580259259259259,120.87752814814814,0)" xlink:href="#am"/><use transform="matrix(0.05580259259259259,0,0,0.05580259259259259,132.03804666666665,0)" xlink:href="#J"/><use transform="matrix(0.05580259259259259,0,0,0.05580259259259259,143.19856518518517,0)" xlink:href="#an"/><use transform="matrix(0.05580259259259259,0,0,0.05580259259259259,148.77882444444444,0)" xlink:href="#J"/><use transform="matrix(0.05580259259259259,0,0,0.05580259259259259,159.93934296296297,0)" xlink:href="#ai"/><use transform="matrix(0.05580259259259259,0,0,0.05580259259259259,171.0998614814815,0)" xlink:href="#aq"/><use transform="matrix(0.05580259259259259,0,0,0.05580259259259259,176.68012074074076,0)" xlink:href="#al"/><use transform="matrix(0.05580259259259259,0,0,0.05580259259259259,181.08852555555558,0)" xlink:href="#ak"/><use transform="matrix(0.05580259259259259,0,0,0.05580259259259259,185.4969303703704,0)" xlink:href="#M"/><use transform="matrix(0.05,0,0,0.05,196.65744888888892,0)" xlink:href="#at"/><use transform="matrix(0.05,0,0,0.05,202.6074488888889,0)" xlink:href="#I"/><use transform="matrix(0.05,0,0,0.05,212.6074488888889,0)" xlink:href="#J"/><use transform="matrix(0.05,0,0,0.05,222.6074488888889,0)" xlink:href="#an"/><use transform="matrix(0.05,0,0,0.05,227.6074488888889,0)" xlink:href="#ag"/><use transform="matrix(0.05,0,0,0.05,237.6074488888889,0)" xlink:href="#au"/><use transform="matrix(0.05,0,0,0.05,242.6074488888889,0)" xlink:href="#av"/><use transform="matrix(0.05,0,0,0.05,254.6074488888889,0)" xlink:href="#J"/><use transform="matrix(0.05,0,0,0.05,264.60744888888894,0)" xlink:href="#an"/><use transform="matrix(0.05,0,0,0.05,269.60744888888894,0)" xlink:href="#ag"/><use transform="matrix(0.05,0,0,0.05,279.60744888888894,0)" xlink:href="#az"/><use transform="matrix(0.05,0,0,0.05,285.5574488888889,0)" xlink:href="#au"/><use transform="matrix(0.05,0,0,0.05,290.5574488888889,0)" xlink:href="#aJ"/><use transform="matrix(0.05,0,0,0.05,303.5074488888889,0)" xlink:href="#J"/><use transform="matrix(0.05,0,0,0.05,313.5074488888889,0)" xlink:href="#an"/><use transform="matrix(0.05,0,0,0.05,318.5074488888889,0)" xlink:href="#J"/><use transform="matrix(0.05,0,0,0.05,328.5074488888889,0)" xlink:href="#aL"/><use transform="matrix(0.05,0,0,0.05,339.4574488888889,0)" xlink:href="#J"/><use transform="matrix(0.05,0,0,0.05,349.4574488888889,0)" xlink:href="#aK"/><use transform="matrix(0.05,0,0,0.05,364.4074488888889,0)" xlink:href="#M"/></g></defs></g></svg>