<svg xmlns="http://www.w3.org/2000/svg" xmlns:xlink="http://www.w3.org/1999/xlink" xmlns:lucid="lucid" width="4681.12" height="1224.9"><g transform="translate(0 0)" lucid:page-tab-id="bnFes7fgtGc7"><path d="M0 0h4681.12v1224.9H0z" fill="#fff"/><path d="M1135.35 632.68h240v60h-240z" fill="none"/><path d="M660 112a12 12 0 0 1 12-12h136a12 12 0 0 1 12 12v96a12 12 0 0 1-12 12H672a12 12 0 0 1-12-12z" stroke="#333" fill="#fff"/><use xlink:href="#a" transform="matrix(1,0,0,1,660,100) translate(26.054999999999993 63.15)"/><path d="M720 312a12 12 0 0 1 12-12h16a12 12 0 0 1 12 12v416a12 12 0 0 1-12 12h-16a12 12 0 0 1-12-12z" stroke="#333" fill="#fff"/><path d="M261 320h440M261.03 320H260" stroke="#999" stroke-width="2" fill="none"/><path d="M716.26 320L702 324.64v-9.27z" stroke="#999" stroke-width="2" fill="#999"/><use xlink:href="#b" transform="matrix(1,0,0,1,348.0524883910805,289.33333421071774) translate(0.0049999999999954525 17.77777777777778)"/><path d="M1300 112a12 12 0 0 1 12-12h136a12 12 0 0 1 12 12v96a12 12 0 0 1-12 12h-136a12 12 0 0 1-12-12z" stroke="#333" fill="#fff"/><use xlink:href="#c" transform="matrix(1,0,0,1,1300,100) translate(26.12999999999999 63.15)"/><path d="M1360 352a12 12 0 0 1 12-12h16a12 12 0 0 1 12 12v56a12 12 0 0 1-12 12h-16a12 12 0 0 1-12-12z" stroke="#333" fill="#fff"/><path d="M761.5 352H1341" stroke="#999" stroke-width="2" fill="none"/><path d="M761.53 353h-1.03v-2h1.03z" stroke="#999" stroke-width=".05" fill="#999"/><path d="M1356.26 352l-14.26 4.63v-9.26z" stroke="#999" stroke-width="2" fill="#999"/><use xlink:href="#d" transform="matrix(1,0,0,1,853.0246435683896,321.33333341996257) translate(0.0049999999999954525 17.77777777777778)"/><use xlink:href="#e" transform="matrix(1,0,0,1,853.0246435683896,321.33333341996257) translate(260.9926543209876 17.77777777777778)"/><path d="M1358.5 400H762.32" stroke="#999" stroke-width="2" fill="none"/><path d="M1359.5 401h-1.03v-2h1.03z" stroke="#999" stroke-width=".05" fill="#999"/><path d="M779.68 389.82L762.48 400l17.2 10.18" stroke="#999" stroke-width="2" fill="none"/><use xlink:href="#f" transform="matrix(1,0,0,1,1037.399665295956,369.0668463675495) translate(0 17.955555555555552)"/><path d="M1797.3 113.16a12 12 0 0 1 12-12h136a12 12 0 0 1 12 12v96a12 12 0 0 1-12 12h-136a12 12 0 0 1-12-12z" stroke="#333" fill="#fff"/><use xlink:href="#g" transform="matrix(1,0,0,1,1797.296247002381,101.15522395689854) translate(15.130000000000004 63.15)"/><path d="M2297.3 112a12 12 0 0 1 12-12h136a12 12 0 0 1 12 12v96a12 12 0 0 1-12 12h-136a12 12 0 0 1-12-12z" stroke="#333" fill="#fff"/><use xlink:href="#h" transform="matrix(1,0,0,1,2297.2962470023813,100) translate(48.57999999999999 63.15)"/><path d="M1857.3 444a12 12 0 0 1 12-12h16a12 12 0 0 1 12 12v264a12 12 0 0 1-12 12h-16a12 12 0 0 1-12-12z" stroke="#333" fill="#fff"/><path d="M761.5 452h1076.8" stroke="#999" stroke-width="2" fill="none"/><path d="M761.53 453h-1.03v-2h1.03z" stroke="#999" stroke-width=".05" fill="#999"/><path d="M1853.56 452l-14.27 4.63v-9.26z" stroke="#999" stroke-width="2" fill="#999"/><use xlink:href="#i" transform="matrix(1,0,0,1,1256.5793643797417,421.33329856554263) translate(0.005000000000002558 17.77777777777778)"/><path d="M2357.3 452a12 12 0 0 1 12-12h16a12 12 0 0 1 12 12v236a12 12 0 0 1-12 12h-16a12 12 0 0 1-12-12z" stroke="#333" fill="#fff"/><path d="M1898.8 460h439.5" stroke="#999" stroke-width="2" fill="none"/><path d="M1898.82 461h-1.02v-2h1.02z" stroke="#999" stroke-width=".05" fill="#999"/><path d="M2353.56 460l-14.27 4.63v-9.26z" stroke="#999" stroke-width="2" fill="#999"/><use xlink:href="#j" transform="matrix(1,0,0,1,2004.350521013266,429.0666086577071) translate(0.0049999999999954525 17.955555555555552)"/><path d="M2797.3 112a12 12 0 0 1 12-12h136a12 12 0 0 1 12 12v96a12 12 0 0 1-12 12h-136a12 12 0 0 1-12-12z" stroke="#333" fill="#fff"/><use xlink:href="#k" transform="matrix(1,0,0,1,2797.2962470023813,100) translate(33.57999999999999 63.15)"/><path d="M2398.8 480h441.7" stroke="#999" stroke-width="2" fill="none"/><path d="M2398.82 481h-1.02v-2h1.02z" stroke="#999" stroke-width=".05" fill="#999"/><path d="M2855.76 480l-14.26 4.63v-9.26z" stroke="#999" stroke-width="2" fill="#999"/><use xlink:href="#l" transform="matrix(1,0,0,1,2540.927133754918,449.06665018911343) translate(0.0049999999999954525 17.955555555555552)"/><path d="M2859.5 472a12 12 0 0 1 12-12h16a12 12 0 0 1 12 12v216a12 12 0 0 1-12 12h-16a12 12 0 0 1-12-12zM3317.3 112a12 12 0 0 1 12-12h136a12 12 0 0 1 12 12v96a12 12 0 0 1-12 12h-136a12 12 0 0 1-12-12z" stroke="#333" fill="#fff"/><use xlink:href="#m" transform="matrix(1,0,0,1,3317.2962470023813,100) translate(25.07999999999999 63.15)"/><path d="M3379.5 502a12 12 0 0 1 12-12h16a12 12 0 0 1 12 12v166a12 12 0 0 1-12 12h-16a12 12 0 0 1-12-12z" stroke="#333" fill="#fff"/><path d="M2901 506.2h459.5" stroke="#999" stroke-width="2" fill="none"/><path d="M2901.03 507.2H2900v-2h1.03z" stroke="#999" stroke-width=".05" fill="#999"/><path d="M3375.76 506.2l-14.26 4.63v-9.27z" stroke="#999" stroke-width="2" fill="#999"/><use xlink:href="#l" transform="matrix(1,0,0,1,3052.0290581802765,475.2566758090898) translate(0.0049999999999954525 17.955555555555552)"/><path d="M3421 540h519.5" stroke="#999" stroke-width="2" fill="none"/><path d="M3421.03 541H3420v-2h1.03z" stroke="#999" stroke-width=".05" fill="#999"/><path d="M3955.76 540l-14.26 4.63v-9.26z" stroke="#999" stroke-width="2" fill="#999"/><use xlink:href="#l" transform="matrix(1,0,0,1,3576.3756406545767,509.06670330719174) translate(0.0049999999999954525 17.955555555555552)"/><path d="M3857.3 112a12 12 0 0 1 12-12h216a12 12 0 0 1 12 12v96a12 12 0 0 1-12 12h-216a12 12 0 0 1-12-12z" stroke="#333" fill="#fff"/><use xlink:href="#n" transform="matrix(1,0,0,1,3857.2962470023804,100) translate(28.65500000000001 63.15)"/><path d="M3959.5 532a12 12 0 0 1 12-12h16a12 12 0 0 1 12 12v116a12 12 0 0 1-12 12h-16a12 12 0 0 1-12-12zM4457.3 113.16a12 12 0 0 1 12-12h136a12 12 0 0 1 12 12v96a12 12 0 0 1-12 12h-136a12 12 0 0 1-12-12z" stroke="#333" fill="#fff"/><use xlink:href="#o" transform="matrix(1,0,0,1,4457.29624700238,101.15522395689854) translate(5.604999999999999 63.15)"/><path d="M4519.5 544a12 12 0 0 1 12-12h16a12 12 0 0 1 12 12v96a12 12 0 0 1-12 12h-16a12 12 0 0 1-12-12z" stroke="#333" fill="#fff"/><path d="M4001 552h499.5" stroke="#999" stroke-width="2" fill="none"/><path d="M4001.03 553H4000v-2h1.03z" stroke="#999" stroke-width=".05" fill="#999"/><path d="M4515.76 552l-14.26 4.63v-9.26z" stroke="#999" stroke-width="2" fill="#999"/><use xlink:href="#l" transform="matrix(1,0,0,1,4147.327527245427,521.0666857618098) translate(0.0049999999999954525 17.955555555555552)"/><path d="M4518 640H4001.82" stroke="#999" stroke-width="2" fill="none"/><path d="M4519 640.02l.08.98h-1.1v-2h1.02z" stroke="#999" stroke-width=".05" fill="#999"/><path d="M4019.18 629.82l-17.2 10.18 17.2 10.18" stroke="#999" stroke-width="2" fill="none"/><use xlink:href="#p" transform="matrix(1,0,0,1,4196.624748793855,644.0005764083447) translate(0.005000000000002558 17.955555555555552)"/><path d="M3958.67 652h-537.35" stroke="#999" stroke-width="2" fill="none"/><path d="M3959.6 651.86l.48 1.14h-1.44v-2h.76z" stroke="#999" stroke-width=".05" fill="#999"/><path d="M3438.68 641.82l-17.2 10.18 17.2 10.18" stroke="#999" stroke-width="2" fill="none"/><use xlink:href="#p" transform="matrix(1,0,0,1,3626.7080028216865,656.0000000001162) translate(0.005000000000002558 17.955555555555552)"/><path d="M3378.15 669.96h-476.33" stroke="#999" stroke-width="2" fill="none"/><path d="M3379.15 669.96l.24 1h-1.27v-2h.94z" stroke="#999" stroke-width=".05" fill="#999"/><path d="M2919.18 659.77l-17.2 10.2 17.2 10.17" stroke="#999" stroke-width="2" fill="none"/><use xlink:href="#p" transform="matrix(1,0,0,1,3076.700693258173,673.9556643559479) translate(0.005000000000002558 17.955555555555552)"/><path d="M2858 680h-458.4" stroke="#999" stroke-width="2" fill="none"/><path d="M2859 681h-1.03v-2h1.03z" stroke="#999" stroke-width=".05" fill="#999"/><path d="M2416.98 669.82L2399.76 680l17.22 10.18" stroke="#999" stroke-width="2" fill="none"/><use xlink:href="#p" transform="matrix(1,0,0,1,2565.5228356683956,684.000016109991) translate(0.005000000000002558 17.955555555555552)"/><path d="M2356.22 691.08h-456.6" stroke="#999" stroke-width="2" fill="none"/><path d="M2357.4 691.86l.1.22h-1.3v-2h.78z" stroke="#999" stroke-width=".05" fill="#999"/><path d="M1916.98 680.9l-17.22 10.18 17.22 10.18" stroke="#999" stroke-width="2" fill="none"/><use xlink:href="#p" transform="matrix(1,0,0,1,2064.631756231434,695.0793505189139) translate(0.005000000000002558 17.955555555555552)"/><path d="M3378 1020h-476.18" stroke="#999" stroke-width="2" fill="none"/><path d="M3379 1021h-1.03v-2h1.03z" stroke="#999" stroke-width=".05" fill="#999"/><path d="M2919.18 1009.82l-17.2 10.18 17.2 10.18" stroke="#999" stroke-width="2" fill="none"/><use xlink:href="#q" transform="matrix(1,0,0,1,3096.512787911066,1024.0000369988998) translate(0.005000000000002558 17.955555555555552)"/><path d="M3958 1000h-536.18" stroke="#999" stroke-width="2" fill="none"/><path d="M3959 1001h-1.03v-2h1.03z" stroke="#999" stroke-width=".05" fill="#999"/><path d="M3439.18 989.82l-17.2 10.18 17.2 10.18" stroke="#999" stroke-width="2" fill="none"/><use xlink:href="#q" transform="matrix(1,0,0,1,3646.512781560801,1004.0000369988995) translate(0.005000000000002558 17.955555555555552)"/><path d="M4518 980h-516.18" stroke="#999" stroke-width="2" fill="none"/><path d="M4519 981h-1.02v-2h1.02z" stroke="#999" stroke-width=".05" fill="#999"/><path d="M4019.18 969.82l-17.2 10.18 17.2 10.18" stroke="#999" stroke-width="2" fill="none"/><use xlink:href="#q" transform="matrix(1,0,0,1,4216.512779911118,984.000040338348) translate(0.005000000000002558 17.955555555555552)"/><path d="M2356.46 1052H1899.6" stroke="#999" stroke-width="2" fill="none"/><path d="M2357.4 1051.86l.48 1.14h-1.44v-2h.76z" stroke="#999" stroke-width=".05" fill="#999"/><path d="M1916.98 1041.82l-17.22 10.18 17.22 10.18" stroke="#999" stroke-width="2" fill="none"/><use xlink:href="#q" transform="matrix(1,0,0,1,2084.6424301684942,1056.0000000001162) translate(0.005000000000002558 17.955555555555552)"/><path d="M1855.8 700H762.32" stroke="#999" stroke-width="2" fill="none"/><path d="M1856.8 701h-1.03v-2h1.03z" stroke="#999" stroke-width=".05" fill="#999"/><path d="M779.68 689.82L762.46 700l17.22 10.18" stroke="#999" stroke-width="2" fill="none"/><use xlink:href="#r" transform="matrix(1,0,0,1,1286.0478549307375,669.0667552801922) translate(0.004999999999999005 17.955555555555552)"/><path d="M2858.67 1032H2399.6" stroke="#999" stroke-width="2" fill="none"/><path d="M2859.6 1031.86l.48 1.14h-1.44v-2h.76z" stroke="#999" stroke-width=".05" fill="#999"/><path d="M2416.98 1021.82l-17.22 10.18 17.22 10.18" stroke="#999" stroke-width="2" fill="none"/><use xlink:href="#q" transform="matrix(1,0,0,1,2585.744350156356,1036.000000000116) translate(0.005000000000002558 17.955555555555552)"/><path d="M2901 870.76h459.5" stroke="#999" stroke-width="2" fill="none"/><path d="M2901.03 871.76H2900v-2h1.03z" stroke="#999" stroke-width=".05" fill="#999"/><path d="M3375.76 870.76l-14.26 4.63v-9.28z" stroke="#999" stroke-width="2" fill="#999"/><use xlink:href="#s" transform="matrix(1,0,0,1,2993.4864678418626,839.823788917482) translate(0.0049999999999954525 17.955555555555552)"/><use xlink:href="#t" transform="matrix(1,0,0,1,2993.4864678418626,839.823788917482) translate(201.1321604938271 17.955555555555552)"/><path d="M4001 900h499.5" stroke="#999" stroke-width="2" fill="none"/><path d="M4001.03 901H4000v-2h1.03z" stroke="#999" stroke-width=".05" fill="#999"/><path d="M4515.76 900l-14.26 4.63v-9.26z" stroke="#999" stroke-width="2" fill="#999"/><use xlink:href="#s" transform="matrix(1,0,0,1,4113.485865746272,869.066666666666) translate(0.0049999999999954525 17.955555555555552)"/><use xlink:href="#t" transform="matrix(1,0,0,1,4113.485865746272,869.066666666666) translate(201.1321604938271 17.955555555555552)"/><path d="M1520.5 820h317.8M1520.53 820h-1.03" stroke="#999" stroke-width="2" fill="none"/><path d="M1853.56 820l-14.27 4.63v-9.26z" stroke="#999" stroke-width="2" fill="#999"/><use xlink:href="#u" transform="matrix(1,0,0,1,1577.1605039157755,789.3333028454471) translate(0.0049999999999954525 17.77777777777778)"/><use xlink:href="#v" transform="matrix(1,0,0,1,1577.1605039157755,789.3333028454471) translate(46.85685185185185 17.77777777777778)"/><use xlink:href="#w" transform="matrix(1,0,0,1,1577.1605039157755,789.3333028454471) translate(143.02969135802468 17.77777777777778)"/><path d="M1898.8 840h439.5" stroke="#999" stroke-width="2" fill="none"/><path d="M1898.82 841h-1.02v-2h1.02z" stroke="#999" stroke-width=".05" fill="#999"/><path d="M2353.56 840l-14.27 4.63v-9.26z" stroke="#999" stroke-width="2" fill="#999"/><use xlink:href="#x" transform="matrix(1,0,0,1,1984.3999066908957,809.0666788508645) translate(0.0049999999999954525 17.955555555555552)"/><path d="M3421 880h519.5" stroke="#999" stroke-width="2" fill="none"/><path d="M3421.03 881H3420v-2h1.03z" stroke="#999" stroke-width=".05" fill="#999"/><path d="M3955.76 880l-14.26 4.63v-9.26z" stroke="#999" stroke-width="2" fill="#999"/><use xlink:href="#s" transform="matrix(1,0,0,1,3521.7426266338466,849.0666589983139) translate(0.0049999999999954525 17.955555555555552)"/><use xlink:href="#t" transform="matrix(1,0,0,1,3521.7426266338466,849.0666589983139) translate(201.1321604938271 17.955555555555552)"/><path d="M2398.8 860h441.7" stroke="#999" stroke-width="2" fill="none"/><path d="M2398.82 861h-1.02v-2h1.02z" stroke="#999" stroke-width=".05" fill="#999"/><path d="M2855.76 860l-14.26 4.63v-9.26z" stroke="#999" stroke-width="2" fill="#999"/><use xlink:href="#s" transform="matrix(1,0,0,1,2482.384545161563,829.0666866954791) translate(0.0049999999999954525 17.955555555555552)"/><use xlink:href="#t" transform="matrix(1,0,0,1,2482.384545161563,829.0666866954791) translate(201.1321604938271 17.955555555555552)"/><path d="M1857.3 812a12 12 0 0 1 12-12h16a12 12 0 0 1 12 12v256a12 12 0 0 1-12 12h-16a12 12 0 0 1-12-12zM2357.3 832a12 12 0 0 1 12-12h16a12 12 0 0 1 12 12v216a12 12 0 0 1-12 12h-16a12 12 0 0 1-12-12zM3379.5 852a12 12 0 0 1 12-12h16a12 12 0 0 1 12 12v176a12 12 0 0 1-12 12h-16a12 12 0 0 1-12-12zM3959.5 872a12 12 0 0 1 12-12h16a12 12 0 0 1 12 12v136a12 12 0 0 1-12 12h-16a12 12 0 0 1-12-12zM2859.5 852a12 12 0 0 1 12-12h16a12 12 0 0 1 12 12v176a12 12 0 0 1-12 12h-16a12 12 0 0 1-12-12zM4519.5 892a12 12 0 0 1 12-12h16a12 12 0 0 1 12 12v96a12 12 0 0 1-12 12h-16a12 12 0 0 1-12-12z" stroke="#333" fill="#fff"/><path d="M2880 701.5v9.13m0 9.14v18.26m0 9.14v18.26m0 9.14v18.26m0 9.14v18.26m0 9.14v9.13" stroke="#999" stroke-width="2" fill="none"/><path d="M2881 701.53h-2v-1.03h2zM2881 839.5h-2v-1.03h2z" stroke="#999" stroke-width=".05" fill="#999"/><path d="M3980 221.5v9.9m0 9.9v19.8m0 9.9v19.8m0 9.9v19.8m0 9.9v19.8m0 9.9v19.8m0 9.9v19.8m0 9.9v19.8m0 9.9V469m0 9.9v19.8m0 9.9v9.9" stroke="#999" stroke-width="2" fill="none"/><path d="M3981 221.53h-2v-1.03h2zM3981 519.5h-2v-1.03h2z" stroke="#999" stroke-width=".05" fill="#999"/><path d="M2880 1041.5v9.17m0 9.16v18.34m0 9.16v18.34m0 9.16v18.34m0 9.16v18.34m0 9.16v9.17" stroke="#999" stroke-width="2" fill="none"/><path d="M2881 1041.53h-2v-1.03h2z" stroke="#999" stroke-width=".05" fill="#999"/><path d="M2880 1178.97v1.03M2380 1061.5v9.8m0 9.78v19.6m0 9.78v19.58m0 9.8v19.58m0 9.8v9.78" stroke="#999" stroke-width="2" fill="none"/><path d="M2381 1061.53h-2v-1.03h2z" stroke="#999" stroke-width=".05" fill="#999"/><path d="M2380 1178.97v1.03M3400 681.5v10.47m0 10.46v20.94m0 10.46v20.94m0 10.46v20.94m0 10.46v20.94m0 10.46v10.47" stroke="#999" stroke-width="2" fill="none"/><path d="M3401 681.53h-2v-1.03h2zM3401 839.5h-2v-1.03h2z" stroke="#999" stroke-width=".05" fill="#999"/><path d="M1877.3 222.66v9.9m0 9.9v19.78m0 9.9v19.8m0 9.9v19.8m0 9.9v19.78m0 9.9v19.8m0 9.9v19.78m0 9.9v9.9" stroke="#999" stroke-width="2" fill="none"/><path d="M1878.3 222.68h-2v-1.03h2zM1878.3 431.5h-2v-1.03h2z" stroke="#999" stroke-width=".05" fill="#999"/><path d="M740 221.5v8.56m0 8.55v17.12m0 8.56v17.1m0 8.56v8.56" stroke="#999" stroke-width="2" fill="none"/><path d="M741 221.53h-2v-1.03h2zM741 299.5h-2v-1.03h2z" stroke="#999" stroke-width=".05" fill="#999"/><path d="M3400 1041.5v9.17m0 9.16v18.34m0 9.16v18.34m0 9.16v18.34m0 9.16v18.34m0 9.16v9.17" stroke="#999" stroke-width="2" fill="none"/><path d="M3401 1041.53h-2v-1.03h2z" stroke="#999" stroke-width=".05" fill="#999"/><path d="M3400 1178.97v1.03M3980 1021.5v10.5m0 10.5v21m0 10.5v21m0 10.5v21m0 10.5v21m0 10.5v10.5" stroke="#999" stroke-width="2" fill="none"/><path d="M3981 1021.53h-2v-1.03h2z" stroke="#999" stroke-width=".05" fill="#999"/><path d="M3980 1178.97v1.03M2380 701.5v9.75m0 9.75v19.5m0 9.75v19.5m0 9.75V799m0 9.75v9.75" stroke="#999" stroke-width="2" fill="none"/><path d="M2381 701.53h-2v-1.03h2zM2381 819.5h-2v-1.03h2z" stroke="#999" stroke-width=".05" fill="#999"/><path d="M2377.3 221.5v10.33m0 10.34v20.66m0 10.34v20.66m0 10.34v20.66m0 10.34v20.66m0 10.34v20.66m0 10.34v20.66m0 10.34v10.33" stroke="#999" stroke-width="2" fill="none"/><path d="M2378.3 221.53h-2v-1.03h2zM2378.3 439.5h-2v-1.03h2z" stroke="#999" stroke-width=".05" fill="#999"/><path d="M1380 221.5v9.75m0 9.75v19.5m0 9.75v19.5m0 9.75V319m0 9.75v9.75" stroke="#999" stroke-width="2" fill="none"/><path d="M1381 221.53h-2v-1.03h2zM1381 339.5h-2v-1.03h2z" stroke="#999" stroke-width=".05" fill="#999"/><path d="M1880 1081.5v8.13m0 8.12V1114m0 8.13v16.25m0 8.12v16.25m0 8.12v8.13" stroke="#999" stroke-width="2" fill="none"/><path d="M1881 1081.53h-2v-1.03h2z" stroke="#999" stroke-width=".05" fill="#999"/><path d="M1880 1178.97v1.03M1880 721.5v8.55m0 8.56v17.12m0 8.56v17.1m0 8.56v8.56" stroke="#999" stroke-width="2" fill="none"/><path d="M1881 721.53h-2v-1.03h2zM1881 799.5h-2v-1.03h2z" stroke="#999" stroke-width=".05" fill="#999"/><path d="M4539.5 1001.5v9.83m0 9.84v19.66m0 9.84v19.66m0 9.84V1090.08l.03.03.02.05.02.03.03.02.04.02.03.02h.13l.03.02.03.02.04.02.03.02.02.03.02.04.02.02v9.91m0 9.84v19.66m0 9.84v19.66m0 9.84v9.83" stroke="#999" stroke-width="2" fill="none"/><path d="M4540.5 1001.53h-2v-1.03h2z" stroke="#999" stroke-width=".05" fill="#999"/><path d="M4540 1178.97v1.03M4539.5 653.5v9.38m0 9.37V691m0 9.38v18.75m0 9.37v18.75m0 9.38v18.75m0 9.37v18.75m0 9.38v18.75m0 9.37v18.75m0 9.38v9.37" stroke="#999" stroke-width="2" fill="none"/><path d="M4540.5 653.53h-2v-1.03h2zM4540.5 879.5h-2v-1.03h2z" stroke="#999" stroke-width=".05" fill="#999"/><path d="M3980 661.5v9.38m0 9.38v18.76m0 9.38v18.77m0 9.38v18.76m0 9.4v18.75m0 9.38v18.76m0 9.38v18.76m0 9.38v9.38" stroke="#999" stroke-width="2" fill="none"/><path d="M3981 661.53h-2v-1.03h2zM3981 859.5h-2v-1.03h2z" stroke="#999" stroke-width=".05" fill="#999"/><path d="M4537.3 222.66v10.26m0 10.26v20.52m0 10.26v20.53m0 10.25v20.52m0 10.26v20.53m0 10.26v20.52m0 10.26v20.52m0 10.26v20.53m0 10.27v20.52m0 10.25v20.53m0 10.26v10.26" stroke="#999" stroke-width="2" fill="none"/><path d="M4538.3 222.68h-2v-1.03h2zM4538.3 531.5h-2v-1.03h2z" stroke="#999" stroke-width=".05" fill="#999"/><path d="M2880 221.5v9.88m0 9.87V261m0 9.88v19.75m0 9.87v19.75m0 9.88v19.75m0 9.87v19.75m0 9.88v19.75m0 9.87v19.75m0 9.88v9.87" stroke="#999" stroke-width="2" fill="none"/><path d="M2881 221.53h-2v-1.03h2zM2881 459.5h-2v-1.03h2z" stroke="#999" stroke-width=".05" fill="#999"/><path d="M3400 221.5v9.9m0 9.88v19.78m0 9.88v19.78m0 9.9v19.77m0 9.88v19.78m0 9.88v19.78m0 9.9v19.77m0 9.88v19.78m0 9.88v19.78m0 9.9v9.88" stroke="#999" stroke-width="2" fill="none"/><path d="M3401 221.53h-2v-1.03h2zM3401 489.5h-2v-1.03h2z" stroke="#999" stroke-width=".05" fill="#999"/><path d="M1489.5 766.3c0 5.54-4.48 10-10 10s-10-4.46-10-10c0-5.5 4.48-10 10-10s10 4.5 10 10z" stroke="#333" fill="#fff"/><path d="M1479.5 776.3v17.03a42.6 42.6 0 0 0 6.27 22.23L1499.5 838m-20-32.67l-20 32.67m0-51.7h40" stroke="#333" fill="none"/><path d="M1459.5 768.3a12 12 0 0 1 12-12h16a12 12 0 0 1 12 12V848a12 12 0 0 1-12 12h-16a12 12 0 0 1-12-12z" fill="none"/><use xlink:href="#y" transform="matrix(1,0,0,1,1379.5000663461572,838) translate(76.370987654321 17.955555555555552)"/><path d="M140 178.07c0 5.52-4.48 10-10 10s-10-4.48-10-10 4.48-10 10-10 10 4.48 10 10z" stroke="#333" fill="#fff"/><path d="M130 188.07v22a46.3 46.3 0 0 0 5.83 22.5l14.17 25.5m-20-36l-20 36m0-60h40" stroke="#333" fill="none"/><path d="M110 180.07a12 12 0 0 1 12-12h16a12 12 0 0 1 12 12v88a12 12 0 0 1-12 12h-16a12 12 0 0 1-12-12z" fill="none"/><use xlink:href="#y" transform="matrix(1,0,0,1,30,258.0714392993947) translate(76.370987654321 17.955555555555552)"/><path d="M20 275.15h220v90H20z" fill="none"/><use xlink:href="#z" transform="matrix(1,0,0,1,20,275.1490512777859) translate(17.198456790123487 23.05555555555556)"/><use xlink:href="#A" transform="matrix(1,0,0,1,20,275.1490512777859) translate(70.69104938271607 23.05555555555556)"/><use xlink:href="#B" transform="matrix(1,0,0,1,20,275.1490512777859) translate(113.08611111111112 23.05555555555556)"/><use xlink:href="#C" transform="matrix(1,0,0,1,20,275.1490512777859) translate(37.14907407407409 49.988888888888894)"/><use xlink:href="#D" transform="matrix(1,0,0,1,20,275.1490512777859) translate(134.28364197530863 49.988888888888894)"/><use xlink:href="#E" transform="matrix(1,0,0,1,20,275.1490512777859) translate(157.91265432098763 49.988888888888894)"/><use xlink:href="#F" transform="matrix(1,0,0,1,20,275.1490512777859) translate(66.42037037037038 76.92222222222222)"/><path d="M1380 421.5v10.1m0 10.1v20.2m0 10.1v20.2m0 10.1v20.2m0 10.1v20.2m0 10.1v20.2m0 10.1v20.2m0 10.1v20.2m0 10.1V674m0 10.1v20.2m0 10.1v20.2m0 10.1v20.2m0 10.1v20.2m0 10.1v20.2m0 10.1v20.2m0 10.1v20.2m0 10.1v20.2m0 10.1v20.2m0 10.1V977m0 10.1v20.2m0 10.1v20.2m0 10.1v20.2m0 10.1v20.2m0 10.1v20.2m0 10.1v20.2m0 10.1v10.1" stroke="#999" stroke-width="2" fill="none"/><path d="M1381 421.53h-2v-1.03h2z" stroke="#999" stroke-width=".05" fill="#999"/><path d="M1380 1178.97v1.03M740 741.5v9.72m0 9.72v19.45m0 9.7v19.46m0 9.72v19.44m0 9.72v19.45m0 9.7v19.46m0 9.72v19.44m0 9.72v19.45m0 9.7v19.46m0 9.72v19.44m0 9.72v19.45m0 9.7v19.46m0 9.72v19.44m0 9.72v19.45m0 9.7v19.46m0 9.72v9.72" stroke="#999" stroke-width="2" fill="none"/><path d="M741 741.53h-2v-1.03h2z" stroke="#999" stroke-width=".05" fill="#999"/><path d="M740 1178.97v1.03M718.5 718.5H261.82" stroke="#999" stroke-width="2" fill="none"/><path d="M719.5 719.5h-1.03v-2h1.03z" stroke="#999" stroke-width=".05" fill="#999"/><path d="M279.18 708.32l-17.22 10.18 17.22 10.18" stroke="#999" stroke-width="2" fill="none"/><g><use xlink:href="#r" transform="matrix(1,0,0,1,467.1497402159914,687.5649496360872) translate(0.004999999999999005 17.955555555555552)"/></g><defs><path d="M33-154v-36h34v36H33zM33 0v-36h34V0H33" id="G"/><path d="M185-189c-5-48-123-54-124 2 14 75 158 14 163 119 3 78-121 87-175 55-17-10-28-26-33-46l33-7c5 56 141 63 141-1 0-78-155-14-162-118-5-82 145-84 179-34 5 7 8 16 11 25" id="H"/><path d="M59-47c-2 24 18 29 38 22v24C64 9 27 4 27-40v-127H5v-23h24l9-43h21v43h35v23H59v120" id="I"/><path d="M141-36C126-15 110 5 73 4 37 3 15-17 15-53c-1-64 63-63 125-63 3-35-9-54-41-54-24 1-41 7-42 31l-33-3c5-37 33-52 76-52 45 0 72 20 72 64v82c-1 20 7 32 28 27v20c-31 9-61-2-59-35zM48-53c0 20 12 33 32 33 41-3 63-29 60-74-43 2-92-5-92 41" id="J"/><path d="M100-194c63 0 86 42 84 106H49c0 40 14 67 53 68 26 1 43-12 49-29l28 8c-11 28-37 45-77 45C44 4 14-33 15-96c1-61 26-98 85-98zm52 81c6-60-76-77-97-28-3 7-6 17-6 28h103" id="K"/><path d="M240 0l2-218c-23 76-54 145-80 218h-23L58-218 59 0H30v-248h44l77 211c21-75 51-140 76-211h43V0h-30" id="L"/><path d="M117-194c89-4 53 116 60 194h-32v-121c0-31-8-49-39-48C34-167 62-67 57 0H25l-1-190h30c1 10-1 24 2 32 11-22 29-35 61-36" id="M"/><path d="M177-190C167-65 218 103 67 71c-23-6-38-20-44-43l32-5c15 47 100 32 89-28v-30C133-14 115 1 83 1 29 1 15-40 15-95c0-56 16-97 71-98 29-1 48 16 59 35 1-10 0-23 2-32h30zM94-22c36 0 50-32 50-73 0-42-14-75-50-75-39 0-46 34-46 75s6 73 46 73" id="N"/><path d="M114-163C36-179 61-72 57 0H25l-1-190h30c1 12-1 29 2 39 6-27 23-49 58-41v29" id="O"/><g id="a"><use transform="matrix(0.05,0,0,0.05,0,0)" xlink:href="#G"/><use transform="matrix(0.05,0,0,0.05,5,0)" xlink:href="#H"/><use transform="matrix(0.05,0,0,0.05,17,0)" xlink:href="#I"/><use transform="matrix(0.05,0,0,0.05,22,0)" xlink:href="#J"/><use transform="matrix(0.05,0,0,0.05,32,0)" xlink:href="#I"/><use transform="matrix(0.05,0,0,0.05,37,0)" xlink:href="#K"/><use transform="matrix(0.05,0,0,0.05,47,0)" xlink:href="#L"/><use transform="matrix(0.05,0,0,0.05,61.95,0)" xlink:href="#J"/><use transform="matrix(0.05,0,0,0.05,71.95,0)" xlink:href="#M"/><use transform="matrix(0.05,0,0,0.05,81.95,0)" xlink:href="#N"/><use transform="matrix(0.05,0,0,0.05,91.95,0)" xlink:href="#K"/><use transform="matrix(0.05,0,0,0.05,101.95,0)" xlink:href="#O"/><path d="M-.9 1.25h109.7v1.32H-.9z"/></g><path fill="#333" d="M118-107v75H92v-75H18v-26h74v-75h26v75h74v26h-74" id="P"/><path fill="#333" d="M96-169c-40 0-48 33-48 73s9 75 48 75c24 0 41-14 43-38l32 2c-6 37-31 61-74 61-59 0-76-41-82-99-10-93 101-131 147-64 4 7 5 14 7 22l-32 3c-4-21-16-35-41-35" id="Q"/><path fill="#333" d="M106-169C34-169 62-67 57 0H25v-261h32l-1 103c12-21 28-36 61-36 89 0 53 116 60 194h-32v-121c2-32-8-49-39-48" id="R"/><path fill="#333" d="M141-36C126-15 110 5 73 4 37 3 15-17 15-53c-1-64 63-63 125-63 3-35-9-54-41-54-24 1-41 7-42 31l-33-3c5-37 33-52 76-52 45 0 72 20 72 64v82c-1 20 7 32 28 27v20c-31 9-61-2-59-35zM48-53c0 20 12 33 32 33 41-3 63-29 60-74-43 2-92-5-92 41" id="S"/><path fill="#333" d="M117-194c89-4 53 116 60 194h-32v-121c0-31-8-49-39-48C34-167 62-67 57 0H25l-1-190h30c1 10-1 24 2 32 11-22 29-35 61-36" id="T"/><path fill="#333" d="M177-190C167-65 218 103 67 71c-23-6-38-20-44-43l32-5c15 47 100 32 89-28v-30C133-14 115 1 83 1 29 1 15-40 15-95c0-56 16-97 71-98 29-1 48 16 59 35 1-10 0-23 2-32h30zM94-22c36 0 50-32 50-73 0-42-14-75-50-75-39 0-46 34-46 75s6 73 46 73" id="U"/><path fill="#333" d="M100-194c63 0 86 42 84 106H49c0 40 14 67 53 68 26 1 43-12 49-29l28 8c-11 28-37 45-77 45C44 4 14-33 15-96c1-61 26-98 85-98zm52 81c6-60-76-77-97-28-3 7-6 17-6 28h103" id="V"/><path fill="#333" d="M-5 72V49h209v23H-5" id="W"/><path fill="#333" d="M135-143c-3-34-86-38-87 0 15 53 115 12 119 90S17 21 10-45l28-5c4 36 97 45 98 0-10-56-113-15-118-90-4-57 82-63 122-42 12 7 21 19 24 35" id="X"/><path fill="#333" d="M59-47c-2 24 18 29 38 22v24C64 9 27 4 27-40v-127H5v-23h24l9-43h21v43h35v23H59v120" id="Y"/><path fill="#333" d="M87 75C49 33 22-17 22-94c0-76 28-126 65-167h31c-38 41-64 92-64 168S80 34 118 75H87" id="Z"/><path fill="#333" d="M212-179c-10-28-35-45-73-45-59 0-87 40-87 99 0 60 29 101 89 101 43 0 62-24 78-52l27 14C228-24 195 4 139 4 59 4 22-46 18-125c-6-104 99-153 187-111 19 9 31 26 39 46" id="aa"/><path fill="#333" d="M205 0l-28-72H64L36 0H1l101-248h38L239 0h-34zm-38-99l-47-123c-12 45-31 82-46 123h93" id="ab"/><path fill="#333" d="M127-220V0H93v-220H8v-28h204v28h-85" id="ac"/><path fill="#333" d="M30 0v-248h187v28H63v79h144v27H63v87h162V0H30" id="ad"/><path fill="#333" d="M143 4C61 4 22-44 18-125c-5-107 100-154 193-111 17 8 29 25 37 43l-32 9c-13-25-37-40-76-40-61 0-88 39-88 99 0 61 29 100 91 101 35 0 62-11 79-27v-45h-74v-28h105v86C228-13 192 4 143 4" id="ae"/><path fill="#333" d="M140-251c81 0 123 46 123 126C263-46 219 4 140 4 59 4 17-45 17-125s42-126 123-126zm0 227c63 0 89-41 89-101s-29-99-89-99c-61 0-89 39-89 99S79-25 140-24" id="af"/><path fill="#333" d="M233-177c-1 41-23 64-60 70L243 0h-38l-65-103H63V0H30v-248c88 3 205-21 203 71zM63-129c60-2 137 13 137-47 0-61-80-42-137-45v92" id="ag"/><path fill="#333" d="M137-103V0h-34v-103L8-248h37l75 118 75-118h37" id="ah"/><path fill="#333" d="M33-261c38 41 65 92 65 168S71 34 33 75H2C39 34 66-17 66-93S39-220 2-261h31" id="ai"/><g id="b"><use transform="matrix(0.061728395061728385,0,0,0.061728395061728385,0,0)" xlink:href="#P"/><use transform="matrix(0.061728395061728385,0,0,0.061728395061728385,12.96296296296296,0)" xlink:href="#Q"/><use transform="matrix(0.061728395061728385,0,0,0.061728395061728385,24.07407407407407,0)" xlink:href="#R"/><use transform="matrix(0.061728395061728385,0,0,0.061728395061728385,36.419753086419746,0)" xlink:href="#S"/><use transform="matrix(0.061728395061728385,0,0,0.061728395061728385,48.76543209876542,0)" xlink:href="#T"/><use transform="matrix(0.061728395061728385,0,0,0.061728395061728385,61.1111111111111,0)" xlink:href="#U"/><use transform="matrix(0.061728395061728385,0,0,0.061728395061728385,73.45679012345678,0)" xlink:href="#V"/><use transform="matrix(0.061728395061728385,0,0,0.061728395061728385,85.80246913580245,0)" xlink:href="#W"/><use transform="matrix(0.061728395061728385,0,0,0.061728395061728385,98.14814814814812,0)" xlink:href="#X"/><use transform="matrix(0.061728395061728385,0,0,0.061728395061728385,109.25925925925924,0)" xlink:href="#Y"/><use transform="matrix(0.061728395061728385,0,0,0.061728395061728385,115.43209876543207,0)" xlink:href="#S"/><use transform="matrix(0.061728395061728385,0,0,0.061728395061728385,127.77777777777776,0)" xlink:href="#Y"/><use transform="matrix(0.061728395061728385,0,0,0.061728395061728385,133.95061728395058,0)" xlink:href="#V"/><use transform="matrix(0.061728395061728385,0,0,0.061728395061728385,146.29629629629625,0)" xlink:href="#Z"/><use transform="matrix(0.06172839506172839,0,0,0.06172839506172839,153.64197530864192,0)" xlink:href="#aa"/><use transform="matrix(0.06172839506172839,0,0,0.06172839506172839,169.62962962962956,0)" xlink:href="#ab"/><use transform="matrix(0.06172839506172839,0,0,0.06172839506172839,182.77777777777771,0)" xlink:href="#ac"/><use transform="matrix(0.06172839506172839,0,0,0.06172839506172839,196.29629629629622,0)" xlink:href="#ad"/><use transform="matrix(0.06172839506172839,0,0,0.06172839506172839,211.11111111111103,0)" xlink:href="#ae"/><use transform="matrix(0.06172839506172839,0,0,0.06172839506172839,228.39506172839498,0)" xlink:href="#af"/><use transform="matrix(0.06172839506172839,0,0,0.06172839506172839,245.67901234567893,0)" xlink:href="#ag"/><use transform="matrix(0.06172839506172839,0,0,0.06172839506172839,261.23456790123447,0)" xlink:href="#ah"/><use transform="matrix(0.061728395061728385,0,0,0.061728395061728385,276.0493827160493,0)" xlink:href="#ai"/></g><path d="M24-231v-30h32v30H24zM24 0v-190h32V0H24" id="aj"/><path d="M266 0h-40l-56-210L115 0H75L2-248h35L96-30l15-64 43-154h32l59 218 59-218h35" id="ak"/><path d="M85-194c31 0 48 13 60 33l-1-100h32l1 261h-30c-2-10 0-23-3-31C134-8 116 4 85 4 32 4 16-35 15-94c0-66 23-100 70-100zm9 24c-40 0-46 34-46 75 0 40 6 74 45 74 42 0 51-32 51-76 0-42-9-74-50-73" id="al"/><path d="M100-194c62-1 85 37 85 99 1 63-27 99-86 99S16-35 15-95c0-66 28-99 85-99zM99-20c44 1 53-31 53-75 0-43-8-75-51-75s-53 32-53 75 10 74 51 75" id="am"/><path d="M206 0h-36l-40-164L89 0H53L-1-190h32L70-26l43-164h34l41 164 42-164h31" id="an"/><g id="c"><use transform="matrix(0.05,0,0,0.05,0,0)" xlink:href="#G"/><use transform="matrix(0.05,0,0,0.05,5,0)" xlink:href="#L"/><use transform="matrix(0.05,0,0,0.05,19.950000000000003,0)" xlink:href="#J"/><use transform="matrix(0.05,0,0,0.05,29.950000000000003,0)" xlink:href="#aj"/><use transform="matrix(0.05,0,0,0.05,33.900000000000006,0)" xlink:href="#M"/><use transform="matrix(0.05,0,0,0.05,43.900000000000006,0)" xlink:href="#ak"/><use transform="matrix(0.05,0,0,0.05,60.85,0)" xlink:href="#aj"/><use transform="matrix(0.05,0,0,0.05,64.80000000000001,0)" xlink:href="#M"/><use transform="matrix(0.05,0,0,0.05,74.80000000000001,0)" xlink:href="#al"/><use transform="matrix(0.05,0,0,0.05,84.80000000000001,0)" xlink:href="#am"/><use transform="matrix(0.05,0,0,0.05,94.80000000000001,0)" xlink:href="#an"/><path d="M-.9 1.25h109.55v1.32H-.9z"/></g><path fill="#333" d="M24 0v-261h32V0H24" id="ao"/><path fill="#333" d="M68-38c1 34 0 65-14 84H32c9-13 17-26 17-46H33v-38h35" id="ap"/><g id="d"><use transform="matrix(0.06172839506172839,0,0,0.06172839506172839,0,0)" xlink:href="#P"/><use transform="matrix(0.06172839506172839,0,0,0.06172839506172839,12.962962962962962,0)" xlink:href="#Q"/><use transform="matrix(0.06172839506172839,0,0,0.06172839506172839,24.074074074074073,0)" xlink:href="#R"/><use transform="matrix(0.06172839506172839,0,0,0.06172839506172839,36.41975308641975,0)" xlink:href="#S"/><use transform="matrix(0.06172839506172839,0,0,0.06172839506172839,48.76543209876543,0)" xlink:href="#T"/><use transform="matrix(0.06172839506172839,0,0,0.06172839506172839,61.11111111111111,0)" xlink:href="#U"/><use transform="matrix(0.06172839506172839,0,0,0.06172839506172839,73.45679012345678,0)" xlink:href="#V"/><use transform="matrix(0.06172839506172839,0,0,0.06172839506172839,85.80246913580247,0)" xlink:href="#W"/><use transform="matrix(0.06172839506172839,0,0,0.06172839506172839,98.14814814814815,0)" xlink:href="#X"/><use transform="matrix(0.06172839506172839,0,0,0.06172839506172839,109.25925925925927,0)" xlink:href="#Y"/><use transform="matrix(0.06172839506172839,0,0,0.06172839506172839,115.4320987654321,0)" xlink:href="#S"/><use transform="matrix(0.06172839506172839,0,0,0.06172839506172839,127.7777777777778,0)" xlink:href="#Y"/><use transform="matrix(0.06172839506172839,0,0,0.06172839506172839,133.95061728395063,0)" xlink:href="#V"/><use transform="matrix(0.06172839506172839,0,0,0.06172839506172839,146.2962962962963,0)" xlink:href="#Z"/><use transform="matrix(0.06172839506172839,0,0,0.06172839506172839,153.64197530864197,0)" xlink:href="#ao"/><use transform="matrix(0.06172839506172839,0,0,0.06172839506172839,158.5185185185185,0)" xlink:href="#S"/><use transform="matrix(0.06172839506172839,0,0,0.06172839506172839,170.86419753086417,0)" xlink:href="#X"/><use transform="matrix(0.06172839506172839,0,0,0.06172839506172839,181.9753086419753,0)" xlink:href="#Y"/><use transform="matrix(0.06172839506172839,0,0,0.06172839506172839,188.14814814814812,0)" xlink:href="#W"/><use transform="matrix(0.06172839506172839,0,0,0.06172839506172839,200.4938271604938,0)" xlink:href="#X"/><use transform="matrix(0.06172839506172839,0,0,0.06172839506172839,211.6049382716049,0)" xlink:href="#Y"/><use transform="matrix(0.06172839506172839,0,0,0.06172839506172839,217.77777777777774,0)" xlink:href="#S"/><use transform="matrix(0.06172839506172839,0,0,0.06172839506172839,230.1234567901234,0)" xlink:href="#Y"/><use transform="matrix(0.06172839506172839,0,0,0.06172839506172839,236.29629629629625,0)" xlink:href="#V"/><use transform="matrix(0.06172839506172839,0,0,0.06172839506172839,248.64197530864192,0)" xlink:href="#ap"/></g><path fill="#333" d="M100-194c62-1 85 37 85 99 1 63-27 99-86 99S16-35 15-95c0-66 28-99 85-99zM99-20c44 1 53-31 53-75 0-43-8-75-51-75s-53 32-53 75 10 74 51 75" id="aq"/><path fill="#333" d="M114-163C36-179 61-72 57 0H25l-1-190h30c1 12-1 29 2 39 6-27 23-49 58-41v29" id="ar"/><path fill="#333" d="M179-190L93 31C79 59 56 82 12 73V49c39 6 53-20 64-50L1-190h34L92-34l54-156h33" id="as"/><g id="e"><use transform="matrix(0.06172839506172839,0,0,0.06172839506172839,0,0)" xlink:href="#Q"/><use transform="matrix(0.06172839506172839,0,0,0.06172839506172839,11.11111111111111,0)" xlink:href="#S"/><use transform="matrix(0.06172839506172839,0,0,0.06172839506172839,23.45679012345679,0)" xlink:href="#Y"/><use transform="matrix(0.06172839506172839,0,0,0.06172839506172839,29.62962962962963,0)" xlink:href="#V"/><use transform="matrix(0.06172839506172839,0,0,0.06172839506172839,41.97530864197531,0)" xlink:href="#U"/><use transform="matrix(0.06172839506172839,0,0,0.06172839506172839,54.32098765432099,0)" xlink:href="#aq"/><use transform="matrix(0.06172839506172839,0,0,0.06172839506172839,66.66666666666667,0)" xlink:href="#ar"/><use transform="matrix(0.06172839506172839,0,0,0.06172839506172839,74.01234567901236,0)" xlink:href="#as"/><use transform="matrix(0.06172839506172839,0,0,0.06172839506172839,85.12345679012347,0)" xlink:href="#W"/><use transform="matrix(0.06172839506172839,0,0,0.06172839506172839,97.46913580246915,0)" xlink:href="#X"/><use transform="matrix(0.06172839506172839,0,0,0.06172839506172839,108.58024691358027,0)" xlink:href="#Y"/><use transform="matrix(0.06172839506172839,0,0,0.06172839506172839,114.7530864197531,0)" xlink:href="#S"/><use transform="matrix(0.06172839506172839,0,0,0.06172839506172839,127.09876543209879,0)" xlink:href="#Y"/><use transform="matrix(0.06172839506172839,0,0,0.06172839506172839,133.27160493827162,0)" xlink:href="#V"/><use transform="matrix(0.06172839506172839,0,0,0.06172839506172839,145.6172839506173,0)" xlink:href="#ai"/></g><path fill="#333" d="M84 4C-5 8 30-112 23-190h32v120c0 31 7 50 39 49 72-2 45-101 50-169h31l1 190h-30c-1-10 1-25-2-33-11 22-28 36-60 37" id="at"/><g id="f"><use transform="matrix(0.06234567901234567,0,0,0.06234567901234567,0,0)" xlink:href="#ac"/><use transform="matrix(0.06234567901234567,0,0,0.06234567901234567,12.843209876543208,0)" xlink:href="#ar"/><use transform="matrix(0.06234567901234567,0,0,0.06234567901234567,20.26234567901234,0)" xlink:href="#at"/><use transform="matrix(0.06234567901234567,0,0,0.06234567901234567,32.731481481481474,0)" xlink:href="#V"/></g><path d="M212-179c-10-28-35-45-73-45-59 0-87 40-87 99 0 60 29 101 89 101 43 0 62-24 78-52l27 14C228-24 195 4 139 4 59 4 22-46 18-125c-6-104 99-153 187-111 19 9 31 26 39 46" id="au"/><path d="M179-190L93 31C79 59 56 82 12 73V49c39 6 53-20 64-50L1-190h34L92-34l54-156h33" id="av"/><path d="M63-220v92h138v28H63V0H30v-248h175v28H63" id="aw"/><path d="M210-169c-67 3-38 105-44 169h-31v-121c0-29-5-50-35-48C34-165 62-65 56 0H25l-1-190h30c1 10-1 24 2 32 10-44 99-50 107 0 11-21 27-35 58-36 85-2 47 119 55 194h-31v-121c0-29-5-49-35-48" id="ax"/><g id="g"><use transform="matrix(0.05,0,0,0.05,0,0)" xlink:href="#G"/><use transform="matrix(0.05,0,0,0.05,5,0)" xlink:href="#au"/><use transform="matrix(0.05,0,0,0.05,17.950000000000003,0)" xlink:href="#J"/><use transform="matrix(0.05,0,0,0.05,27.950000000000003,0)" xlink:href="#I"/><use transform="matrix(0.05,0,0,0.05,32.95,0)" xlink:href="#K"/><use transform="matrix(0.05,0,0,0.05,42.95,0)" xlink:href="#N"/><use transform="matrix(0.05,0,0,0.05,52.95,0)" xlink:href="#am"/><use transform="matrix(0.05,0,0,0.05,62.95,0)" xlink:href="#O"/><use transform="matrix(0.05,0,0,0.05,68.9,0)" xlink:href="#av"/><use transform="matrix(0.05,0,0,0.05,77.9,0)" xlink:href="#aw"/><use transform="matrix(0.05,0,0,0.05,88.85000000000001,0)" xlink:href="#O"/><use transform="matrix(0.05,0,0,0.05,94.80000000000001,0)" xlink:href="#J"/><use transform="matrix(0.05,0,0,0.05,104.80000000000001,0)" xlink:href="#ax"/><use transform="matrix(0.05,0,0,0.05,119.75,0)" xlink:href="#K"/><path d="M-.9 1.25h131.55v1.32H-.9z"/></g><path d="M24 0v-261h32V0H24" id="ay"/><g id="h"><use transform="matrix(0.05,0,0,0.05,0,0)" xlink:href="#G"/><use transform="matrix(0.05,0,0,0.05,5,0)" xlink:href="#au"/><use transform="matrix(0.05,0,0,0.05,17.950000000000003,0)" xlink:href="#am"/><use transform="matrix(0.05,0,0,0.05,27.950000000000003,0)" xlink:href="#M"/><use transform="matrix(0.05,0,0,0.05,37.95,0)" xlink:href="#I"/><use transform="matrix(0.05,0,0,0.05,42.95,0)" xlink:href="#O"/><use transform="matrix(0.05,0,0,0.05,48.900000000000006,0)" xlink:href="#am"/><use transform="matrix(0.05,0,0,0.05,58.900000000000006,0)" xlink:href="#ay"/><path d="M-.9 1.25h64.65v1.32H-.9z"/></g><path fill="#333" d="M24-231v-30h32v30H24zM24 0v-190h32V0H24" id="az"/><path fill="#333" d="M108 0H70L1-190h34L89-25l56-165h34" id="aA"/><g id="i"><use transform="matrix(0.06172839506172839,0,0,0.06172839506172839,0,0)" xlink:href="#P"/><use transform="matrix(0.06172839506172839,0,0,0.06172839506172839,12.962962962962962,0)" xlink:href="#S"/><use transform="matrix(0.06172839506172839,0,0,0.06172839506172839,25.30864197530864,0)" xlink:href="#Q"/><use transform="matrix(0.06172839506172839,0,0,0.06172839506172839,36.419753086419746,0)" xlink:href="#Y"/><use transform="matrix(0.06172839506172839,0,0,0.06172839506172839,42.59259259259259,0)" xlink:href="#az"/><use transform="matrix(0.06172839506172839,0,0,0.06172839506172839,47.46913580246913,0)" xlink:href="#aA"/><use transform="matrix(0.06172839506172839,0,0,0.06172839506172839,58.58024691358024,0)" xlink:href="#S"/><use transform="matrix(0.06172839506172839,0,0,0.06172839506172839,70.92592592592592,0)" xlink:href="#Y"/><use transform="matrix(0.06172839506172839,0,0,0.06172839506172839,77.09876543209876,0)" xlink:href="#V"/><use transform="matrix(0.06172839506172839,0,0,0.06172839506172839,89.44444444444444,0)" xlink:href="#Z"/><use transform="matrix(0.06172839506172839,0,0,0.06172839506172839,96.79012345679013,0)" xlink:href="#ai"/></g><path fill="#333" d="M101-234c-31-9-42 10-38 44h38v23H63V0H32v-167H5v-23h27c-7-52 17-82 69-68v24" id="aB"/><g id="j"><use transform="matrix(0.06234567901234567,0,0,0.06234567901234567,0,0)" xlink:href="#P"/><use transform="matrix(0.06234567901234567,0,0,0.06234567901234567,13.09259259259259,0)" xlink:href="#U"/><use transform="matrix(0.06234567901234567,0,0,0.06234567901234567,25.56172839506172,0)" xlink:href="#V"/><use transform="matrix(0.06234567901234567,0,0,0.06234567901234567,38.03086419753085,0)" xlink:href="#Y"/><use transform="matrix(0.06234567901234567,0,0,0.06234567901234567,44.265432098765416,0)" xlink:href="#W"/><use transform="matrix(0.06234567901234567,0,0,0.06234567901234567,56.73456790123455,0)" xlink:href="#ao"/><use transform="matrix(0.06234567901234567,0,0,0.06234567901234567,61.659876543209855,0)" xlink:href="#az"/><use transform="matrix(0.06234567901234567,0,0,0.06234567901234567,66.58518518518517,0)" xlink:href="#X"/><use transform="matrix(0.06234567901234567,0,0,0.06234567901234567,77.80740740740738,0)" xlink:href="#Y"/><use transform="matrix(0.06234567901234567,0,0,0.06234567901234567,84.04197530864195,0)" xlink:href="#W"/><use transform="matrix(0.06234567901234567,0,0,0.06234567901234567,96.51111111111109,0)" xlink:href="#aq"/><use transform="matrix(0.06234567901234567,0,0,0.06234567901234567,108.98024691358023,0)" xlink:href="#aB"/><use transform="matrix(0.06234567901234567,0,0,0.06234567901234567,115.2148148148148,0)" xlink:href="#W"/><use transform="matrix(0.06234567901234567,0,0,0.06234567901234567,127.68395061728393,0)" xlink:href="#Q"/><use transform="matrix(0.06234567901234567,0,0,0.06234567901234567,138.90617283950616,0)" xlink:href="#S"/><use transform="matrix(0.06234567901234567,0,0,0.06234567901234567,151.3753086419753,0)" xlink:href="#Y"/><use transform="matrix(0.06234567901234567,0,0,0.06234567901234567,157.60987654320985,0)" xlink:href="#V"/><use transform="matrix(0.06234567901234567,0,0,0.06234567901234567,170.079012345679,0)" xlink:href="#U"/><use transform="matrix(0.06234567901234567,0,0,0.06234567901234567,182.54814814814813,0)" xlink:href="#aq"/><use transform="matrix(0.06234567901234567,0,0,0.06234567901234567,195.01728395061727,0)" xlink:href="#ar"/><use transform="matrix(0.06234567901234567,0,0,0.06234567901234567,202.4364197530864,0)" xlink:href="#az"/><use transform="matrix(0.06234567901234567,0,0,0.06234567901234567,207.3617283950617,0)" xlink:href="#V"/><use transform="matrix(0.06234567901234567,0,0,0.06234567901234567,219.83086419753084,0)" xlink:href="#X"/><use transform="matrix(0.06234567901234567,0,0,0.06234567901234567,231.05308641975307,0)" xlink:href="#Z"/><use transform="matrix(0.06234567901234567,0,0,0.06234567901234567,238.4722222222222,0)" xlink:href="#ai"/></g><path d="M205 0l-28-72H64L36 0H1l101-248h38L239 0h-34zm-38-99l-47-123c-12 45-31 82-46 123h93" id="aC"/><path d="M115-194c55 1 70 41 70 98S169 2 115 4C84 4 66-9 55-30l1 105H24l-1-265h31l2 30c10-21 28-34 59-34zm-8 174c40 0 45-34 45-75s-6-73-45-74c-42 0-51 32-51 76 0 43 10 73 51 73" id="aD"/><path d="M96-169c-40 0-48 33-48 73s9 75 48 75c24 0 41-14 43-38l32 2c-6 37-31 61-74 61-59 0-76-41-82-99-10-93 101-131 147-64 4 7 5 14 7 22l-32 3c-4-21-16-35-41-35" id="aE"/><g id="k"><use transform="matrix(0.05,0,0,0.05,0,0)" xlink:href="#G"/><use transform="matrix(0.05,0,0,0.05,5,0)" xlink:href="#aC"/><use transform="matrix(0.05,0,0,0.05,17,0)" xlink:href="#aD"/><use transform="matrix(0.05,0,0,0.05,27,0)" xlink:href="#aD"/><use transform="matrix(0.05,0,0,0.05,37,0)" xlink:href="#ay"/><use transform="matrix(0.05,0,0,0.05,40.95,0)" xlink:href="#aj"/><use transform="matrix(0.05,0,0,0.05,44.900000000000006,0)" xlink:href="#aE"/><use transform="matrix(0.05,0,0,0.05,53.900000000000006,0)" xlink:href="#J"/><use transform="matrix(0.05,0,0,0.05,63.900000000000006,0)" xlink:href="#I"/><use transform="matrix(0.05,0,0,0.05,68.9,0)" xlink:href="#aj"/><use transform="matrix(0.05,0,0,0.05,72.85000000000001,0)" xlink:href="#am"/><use transform="matrix(0.05,0,0,0.05,82.85000000000001,0)" xlink:href="#M"/><path d="M-.9 1.25h94.65v1.32H-.9z"/></g><path d="M118-107v75H92v-75H18v-26h74v-75h26v75h74v26h-74" id="aF"/><path d="M-5 72V49h209v23H-5" id="aG"/><path d="M135-143c-3-34-86-38-87 0 15 53 115 12 119 90S17 21 10-45l28-5c4 36 97 45 98 0-10-56-113-15-118-90-4-57 82-63 122-42 12 7 21 19 24 35" id="aH"/><path d="M87 75C49 33 22-17 22-94c0-76 28-126 65-167h31c-38 41-64 92-64 168S80 34 118 75H87" id="aI"/><path d="M33-261c38 41 65 92 65 168S71 34 33 75H2C39 34 66-17 66-93S39-220 2-261h31" id="aJ"/><g id="l"><use transform="matrix(0.06234567901234567,0,0,0.06234567901234567,0,0)" xlink:href="#aF"/><use transform="matrix(0.06234567901234567,0,0,0.06234567901234567,13.09259259259259,0)" xlink:href="#N"/><use transform="matrix(0.06234567901234567,0,0,0.06234567901234567,25.56172839506172,0)" xlink:href="#K"/><use transform="matrix(0.06234567901234567,0,0,0.06234567901234567,38.03086419753085,0)" xlink:href="#I"/><use transform="matrix(0.06234567901234567,0,0,0.06234567901234567,44.265432098765416,0)" xlink:href="#aG"/><use transform="matrix(0.06234567901234567,0,0,0.06234567901234567,56.73456790123455,0)" xlink:href="#aE"/><use transform="matrix(0.06234567901234567,0,0,0.06234567901234567,67.95679012345677,0)" xlink:href="#J"/><use transform="matrix(0.06234567901234567,0,0,0.06234567901234567,80.4259259259259,0)" xlink:href="#I"/><use transform="matrix(0.06234567901234567,0,0,0.06234567901234567,86.66049382716047,0)" xlink:href="#K"/><use transform="matrix(0.06234567901234567,0,0,0.06234567901234567,99.12962962962959,0)" xlink:href="#N"/><use transform="matrix(0.06234567901234567,0,0,0.06234567901234567,111.59876543209873,0)" xlink:href="#am"/><use transform="matrix(0.06234567901234567,0,0,0.06234567901234567,124.06790123456787,0)" xlink:href="#O"/><use transform="matrix(0.06234567901234567,0,0,0.06234567901234567,131.487037037037,0)" xlink:href="#aj"/><use transform="matrix(0.06234567901234567,0,0,0.06234567901234567,136.4123456790123,0)" xlink:href="#K"/><use transform="matrix(0.06234567901234567,0,0,0.06234567901234567,148.88148148148144,0)" xlink:href="#aH"/><use transform="matrix(0.06234567901234567,0,0,0.06234567901234567,160.10370370370367,0)" xlink:href="#aI"/><use transform="matrix(0.06234567901234567,0,0,0.06234567901234567,167.5228395061728,0)" xlink:href="#aJ"/></g><path d="M108 0H70L1-190h34L89-25l56-165h34" id="aK"/><path d="M30-248c87 1 191-15 191 75 0 78-77 80-158 76V0H30v-248zm33 125c57 0 124 11 124-50 0-59-68-47-124-48v98" id="aL"/><path d="M24-231v-30h32v30H24zM-9 49c24 4 33-6 33-30v-209h32V24c2 40-23 58-65 49V49" id="aM"/><g id="m"><use transform="matrix(0.05,0,0,0.05,0,0)" xlink:href="#G"/><use transform="matrix(0.05,0,0,0.05,5,0)" xlink:href="#aC"/><use transform="matrix(0.05,0,0,0.05,17,0)" xlink:href="#aE"/><use transform="matrix(0.05,0,0,0.05,26,0)" xlink:href="#I"/><use transform="matrix(0.05,0,0,0.05,31,0)" xlink:href="#aj"/><use transform="matrix(0.05,0,0,0.05,34.95,0)" xlink:href="#aK"/><use transform="matrix(0.05,0,0,0.05,43.95,0)" xlink:href="#K"/><use transform="matrix(0.05,0,0,0.05,53.95,0)" xlink:href="#aL"/><use transform="matrix(0.05,0,0,0.05,65.95,0)" xlink:href="#O"/><use transform="matrix(0.05,0,0,0.05,71.9,0)" xlink:href="#am"/><use transform="matrix(0.05,0,0,0.05,81.9,0)" xlink:href="#aM"/><use transform="matrix(0.05,0,0,0.05,85.85000000000001,0)" xlink:href="#K"/><use transform="matrix(0.05,0,0,0.05,95.85000000000001,0)" xlink:href="#aE"/><use transform="matrix(0.05,0,0,0.05,104.85000000000001,0)" xlink:href="#I"/><path d="M-.9 1.25h111.65v1.32H-.9z"/></g><path d="M101-234c-31-9-42 10-38 44h38v23H63V0H32v-167H5v-23h27c-7-52 17-82 69-68v24" id="aN"/><path d="M84 4C-5 8 30-112 23-190h32v120c0 31 7 50 39 49 72-2 45-101 50-169h31l1 190h-30c-1-10 1-25-2-33-11 22-28 36-60 37" id="aO"/><g id="n"><use transform="matrix(0.05,0,0,0.05,0,0)" xlink:href="#G"/><use transform="matrix(0.05,0,0,0.05,5,0)" xlink:href="#au"/><use transform="matrix(0.05,0,0,0.05,17.950000000000003,0)" xlink:href="#am"/><use transform="matrix(0.05,0,0,0.05,27.950000000000003,0)" xlink:href="#M"/><use transform="matrix(0.05,0,0,0.05,37.95,0)" xlink:href="#aN"/><use transform="matrix(0.05,0,0,0.05,42.95,0)" xlink:href="#aj"/><use transform="matrix(0.05,0,0,0.05,46.900000000000006,0)" xlink:href="#N"/><use transform="matrix(0.05,0,0,0.05,56.900000000000006,0)" xlink:href="#aO"/><use transform="matrix(0.05,0,0,0.05,66.9,0)" xlink:href="#O"/><use transform="matrix(0.05,0,0,0.05,72.85000000000001,0)" xlink:href="#J"/><use transform="matrix(0.05,0,0,0.05,82.85000000000001,0)" xlink:href="#I"/><use transform="matrix(0.05,0,0,0.05,87.85000000000001,0)" xlink:href="#aj"/><use transform="matrix(0.05,0,0,0.05,91.80000000000001,0)" xlink:href="#am"/><use transform="matrix(0.05,0,0,0.05,101.80000000000001,0)" xlink:href="#M"/><use transform="matrix(0.05,0,0,0.05,111.80000000000001,0)" xlink:href="#L"/><use transform="matrix(0.05,0,0,0.05,126.75,0)" xlink:href="#J"/><use transform="matrix(0.05,0,0,0.05,136.75,0)" xlink:href="#M"/><use transform="matrix(0.05,0,0,0.05,146.75,0)" xlink:href="#J"/><use transform="matrix(0.05,0,0,0.05,156.75,0)" xlink:href="#N"/><use transform="matrix(0.05,0,0,0.05,166.75,0)" xlink:href="#K"/><use transform="matrix(0.05,0,0,0.05,176.75,0)" xlink:href="#O"/><path d="M-.9 1.25h184.5v1.32H-.9z"/></g><g id="o"><use transform="matrix(0.05,0,0,0.05,0,0)" xlink:href="#G"/><use transform="matrix(0.05,0,0,0.05,5,0)" xlink:href="#au"/><use transform="matrix(0.05,0,0,0.05,17.950000000000003,0)" xlink:href="#J"/><use transform="matrix(0.05,0,0,0.05,27.950000000000003,0)" xlink:href="#I"/><use transform="matrix(0.05,0,0,0.05,32.95,0)" xlink:href="#K"/><use transform="matrix(0.05,0,0,0.05,42.95,0)" xlink:href="#N"/><use transform="matrix(0.05,0,0,0.05,52.95,0)" xlink:href="#am"/><use transform="matrix(0.05,0,0,0.05,62.95,0)" xlink:href="#O"/><use transform="matrix(0.05,0,0,0.05,68.9,0)" xlink:href="#av"/><use transform="matrix(0.05,0,0,0.05,77.9,0)" xlink:href="#L"/><use transform="matrix(0.05,0,0,0.05,92.85000000000001,0)" xlink:href="#J"/><use transform="matrix(0.05,0,0,0.05,102.85000000000001,0)" xlink:href="#M"/><use transform="matrix(0.05,0,0,0.05,112.85000000000001,0)" xlink:href="#J"/><use transform="matrix(0.05,0,0,0.05,122.85000000000001,0)" xlink:href="#N"/><use transform="matrix(0.05,0,0,0.05,132.85000000000002,0)" xlink:href="#K"/><use transform="matrix(0.05,0,0,0.05,142.85000000000002,0)" xlink:href="#O"/><path d="M-.9 1.25h150.6v1.32H-.9z"/></g><g id="p"><use transform="matrix(0.06234567901234567,0,0,0.06234567901234567,0,0)" xlink:href="#Q"/><use transform="matrix(0.06234567901234567,0,0,0.06234567901234567,11.22222222222222,0)" xlink:href="#S"/><use transform="matrix(0.06234567901234567,0,0,0.06234567901234567,23.691358024691354,0)" xlink:href="#Y"/><use transform="matrix(0.06234567901234567,0,0,0.06234567901234567,29.92592592592592,0)" xlink:href="#V"/><use transform="matrix(0.06234567901234567,0,0,0.06234567901234567,42.39506172839505,0)" xlink:href="#U"/><use transform="matrix(0.06234567901234567,0,0,0.06234567901234567,54.86419753086418,0)" xlink:href="#aq"/><use transform="matrix(0.06234567901234567,0,0,0.06234567901234567,67.33333333333331,0)" xlink:href="#ar"/><use transform="matrix(0.06234567901234567,0,0,0.06234567901234567,74.75246913580244,0)" xlink:href="#as"/><use transform="matrix(0.06234567901234567,0,0,0.06234567901234567,85.97469135802466,0)" xlink:href="#W"/><use transform="matrix(0.06234567901234567,0,0,0.06234567901234567,98.44382716049378,0)" xlink:href="#ao"/><use transform="matrix(0.06234567901234567,0,0,0.06234567901234567,103.36913580246909,0)" xlink:href="#az"/><use transform="matrix(0.06234567901234567,0,0,0.06234567901234567,108.2944444444444,0)" xlink:href="#X"/><use transform="matrix(0.06234567901234567,0,0,0.06234567901234567,119.51666666666661,0)" xlink:href="#Y"/></g><g id="q"><use transform="matrix(0.06234567901234567,0,0,0.06234567901234567,0,0)" xlink:href="#Q"/><use transform="matrix(0.06234567901234567,0,0,0.06234567901234567,11.22222222222222,0)" xlink:href="#S"/><use transform="matrix(0.06234567901234567,0,0,0.06234567901234567,23.691358024691354,0)" xlink:href="#Y"/><use transform="matrix(0.06234567901234567,0,0,0.06234567901234567,29.92592592592592,0)" xlink:href="#V"/><use transform="matrix(0.06234567901234567,0,0,0.06234567901234567,42.39506172839505,0)" xlink:href="#U"/><use transform="matrix(0.06234567901234567,0,0,0.06234567901234567,54.86419753086418,0)" xlink:href="#aq"/><use transform="matrix(0.06234567901234567,0,0,0.06234567901234567,67.33333333333331,0)" xlink:href="#ar"/><use transform="matrix(0.06234567901234567,0,0,0.06234567901234567,74.75246913580244,0)" xlink:href="#as"/></g><g id="r"><use transform="matrix(0.06234567901234567,0,0,0.06234567901234567,0,0)" xlink:href="#ac"/><use transform="matrix(0.06234567901234567,0,0,0.06234567901234567,12.843209876543208,0)" xlink:href="#ar"/><use transform="matrix(0.06234567901234567,0,0,0.06234567901234567,20.26234567901234,0)" xlink:href="#at"/><use transform="matrix(0.06234567901234567,0,0,0.06234567901234567,32.731481481481474,0)" xlink:href="#V"/></g><g id="s"><use transform="matrix(0.06234567901234567,0,0,0.06234567901234567,0,0)" xlink:href="#aF"/><use transform="matrix(0.06234567901234567,0,0,0.06234567901234567,13.09259259259259,0)" xlink:href="#aE"/><use transform="matrix(0.06234567901234567,0,0,0.06234567901234567,24.31481481481481,0)" xlink:href="#O"/><use transform="matrix(0.06234567901234567,0,0,0.06234567901234567,31.733950617283945,0)" xlink:href="#K"/><use transform="matrix(0.06234567901234567,0,0,0.06234567901234567,44.20308641975308,0)" xlink:href="#J"/><use transform="matrix(0.06234567901234567,0,0,0.06234567901234567,56.67222222222221,0)" xlink:href="#I"/><use transform="matrix(0.06234567901234567,0,0,0.06234567901234567,62.90679012345677,0)" xlink:href="#K"/><use transform="matrix(0.06234567901234567,0,0,0.06234567901234567,75.37592592592591,0)" xlink:href="#aG"/><use transform="matrix(0.06234567901234567,0,0,0.06234567901234567,87.84506172839505,0)" xlink:href="#aE"/><use transform="matrix(0.06234567901234567,0,0,0.06234567901234567,99.06728395061727,0)" xlink:href="#J"/><use transform="matrix(0.06234567901234567,0,0,0.06234567901234567,111.53641975308639,0)" xlink:href="#I"/><use transform="matrix(0.06234567901234567,0,0,0.06234567901234567,117.77098765432096,0)" xlink:href="#K"/><use transform="matrix(0.06234567901234567,0,0,0.06234567901234567,130.2401234567901,0)" xlink:href="#N"/><use transform="matrix(0.06234567901234567,0,0,0.06234567901234567,142.70925925925923,0)" xlink:href="#am"/><use transform="matrix(0.06234567901234567,0,0,0.06234567901234567,155.17839506172837,0)" xlink:href="#O"/><use transform="matrix(0.06234567901234567,0,0,0.06234567901234567,162.5975308641975,0)" xlink:href="#av"/><use transform="matrix(0.06234567901234567,0,0,0.06234567901234567,173.81975308641972,0)" xlink:href="#aI"/><use transform="matrix(0.06234567901234567,0,0,0.06234567901234567,181.23888888888885,0)" xlink:href="#aJ"/><use transform="matrix(0.06234567901234567,0,0,0.06234567901234567,188.65802469135798,0)" xlink:href="#G"/></g><g id="t"><use transform="matrix(0.06234567901234567,0,0,0.06234567901234567,0,0)" xlink:href="#au"/><use transform="matrix(0.06234567901234567,0,0,0.06234567901234567,16.147530864197527,0)" xlink:href="#J"/><use transform="matrix(0.06234567901234567,0,0,0.06234567901234567,28.61666666666666,0)" xlink:href="#I"/><use transform="matrix(0.06234567901234567,0,0,0.06234567901234567,34.85123456790123,0)" xlink:href="#K"/><use transform="matrix(0.06234567901234567,0,0,0.06234567901234567,47.32037037037036,0)" xlink:href="#N"/><use transform="matrix(0.06234567901234567,0,0,0.06234567901234567,59.789506172839495,0)" xlink:href="#am"/><use transform="matrix(0.06234567901234567,0,0,0.06234567901234567,72.25864197530862,0)" xlink:href="#O"/><use transform="matrix(0.06234567901234567,0,0,0.06234567901234567,79.67777777777775,0)" xlink:href="#av"/></g><path fill="#333" d="M206 0h-36l-40-164L89 0H53L-1-190h32L70-26l43-164h34l41 164 42-164h31" id="aP"/><g id="u"><use transform="matrix(0.06172839506172839,0,0,0.06172839506172839,0,0)" xlink:href="#T"/><use transform="matrix(0.06172839506172839,0,0,0.06172839506172839,12.345679012345679,0)" xlink:href="#V"/><use transform="matrix(0.06172839506172839,0,0,0.06172839506172839,24.691358024691358,0)" xlink:href="#aP"/></g><g id="v"><use transform="matrix(0.06172839506172839,0,0,0.06172839506172839,0,0)" xlink:href="#aa"/><use transform="matrix(0.06172839506172839,0,0,0.06172839506172839,15.987654320987653,0)" xlink:href="#S"/><use transform="matrix(0.06172839506172839,0,0,0.06172839506172839,28.333333333333332,0)" xlink:href="#Y"/><use transform="matrix(0.06172839506172839,0,0,0.06172839506172839,34.50617283950617,0)" xlink:href="#V"/><use transform="matrix(0.06172839506172839,0,0,0.06172839506172839,46.85185185185185,0)" xlink:href="#U"/><use transform="matrix(0.06172839506172839,0,0,0.06172839506172839,59.197530864197525,0)" xlink:href="#aq"/><use transform="matrix(0.06172839506172839,0,0,0.06172839506172839,71.5432098765432,0)" xlink:href="#ar"/><use transform="matrix(0.06172839506172839,0,0,0.06172839506172839,78.88888888888889,0)" xlink:href="#as"/></g><path fill="#333" d="M115-194c55 1 70 41 70 98S169 2 115 4C84 4 66-9 55-30l1 105H24l-1-265h31l2 30c10-21 28-34 59-34zm-8 174c40 0 45-34 45-75s-6-73-45-74c-42 0-51 32-51 76 0 43 10 73 51 73" id="aQ"/><path fill="#333" d="M85-194c31 0 48 13 60 33l-1-100h32l1 261h-30c-2-10 0-23-3-31C134-8 116 4 85 4 32 4 16-35 15-94c0-66 23-100 70-100zm9 24c-40 0-46 34-46 75 0 40 6 74 45 74 42 0 51-32 51-76 0-42-9-74-50-73" id="aR"/><g id="w"><use transform="matrix(0.06172839506172839,0,0,0.06172839506172839,0,0)" xlink:href="#aQ"/><use transform="matrix(0.06172839506172839,0,0,0.06172839506172839,12.345679012345679,0)" xlink:href="#ar"/><use transform="matrix(0.06172839506172839,0,0,0.06172839506172839,19.691358024691358,0)" xlink:href="#V"/><use transform="matrix(0.06172839506172839,0,0,0.06172839506172839,32.03703703703704,0)" xlink:href="#X"/><use transform="matrix(0.06172839506172839,0,0,0.06172839506172839,43.14814814814815,0)" xlink:href="#X"/><use transform="matrix(0.06172839506172839,0,0,0.06172839506172839,54.25925925925927,0)" xlink:href="#V"/><use transform="matrix(0.06172839506172839,0,0,0.06172839506172839,66.60493827160495,0)" xlink:href="#aR"/></g><path fill="#333" d="M33-154v-36h34v36H33zM33 0v-36h34V0H33" id="aS"/><g id="x"><use transform="matrix(0.06234567901234567,0,0,0.06234567901234567,0,0)" xlink:href="#P"/><use transform="matrix(0.06234567901234567,0,0,0.06234567901234567,13.09259259259259,0)" xlink:href="#Q"/><use transform="matrix(0.06234567901234567,0,0,0.06234567901234567,24.31481481481481,0)" xlink:href="#ar"/><use transform="matrix(0.06234567901234567,0,0,0.06234567901234567,31.733950617283945,0)" xlink:href="#V"/><use transform="matrix(0.06234567901234567,0,0,0.06234567901234567,44.20308641975308,0)" xlink:href="#S"/><use transform="matrix(0.06234567901234567,0,0,0.06234567901234567,56.67222222222221,0)" xlink:href="#Y"/><use transform="matrix(0.06234567901234567,0,0,0.06234567901234567,62.90679012345677,0)" xlink:href="#V"/><use transform="matrix(0.06234567901234567,0,0,0.06234567901234567,75.37592592592591,0)" xlink:href="#W"/><use transform="matrix(0.06234567901234567,0,0,0.06234567901234567,87.84506172839505,0)" xlink:href="#Q"/><use transform="matrix(0.06234567901234567,0,0,0.06234567901234567,99.06728395061727,0)" xlink:href="#S"/><use transform="matrix(0.06234567901234567,0,0,0.06234567901234567,111.53641975308639,0)" xlink:href="#Y"/><use transform="matrix(0.06234567901234567,0,0,0.06234567901234567,117.77098765432096,0)" xlink:href="#V"/><use transform="matrix(0.06234567901234567,0,0,0.06234567901234567,130.2401234567901,0)" xlink:href="#U"/><use transform="matrix(0.06234567901234567,0,0,0.06234567901234567,142.70925925925923,0)" xlink:href="#aq"/><use transform="matrix(0.06234567901234567,0,0,0.06234567901234567,155.17839506172837,0)" xlink:href="#ar"/><use transform="matrix(0.06234567901234567,0,0,0.06234567901234567,162.5975308641975,0)" xlink:href="#as"/><use transform="matrix(0.06234567901234567,0,0,0.06234567901234567,173.81975308641972,0)" xlink:href="#Z"/><use transform="matrix(0.06234567901234567,0,0,0.06234567901234567,181.23888888888885,0)" xlink:href="#ai"/><use transform="matrix(0.06234567901234567,0,0,0.06234567901234567,188.65802469135798,0)" xlink:href="#aS"/><use transform="matrix(0.06234567901234567,0,0,0.06234567901234567,194.89259259259254,0)" xlink:href="#aa"/><use transform="matrix(0.06234567901234567,0,0,0.06234567901234567,211.04012345679007,0)" xlink:href="#S"/><use transform="matrix(0.06234567901234567,0,0,0.06234567901234567,223.5092592592592,0)" xlink:href="#Y"/><use transform="matrix(0.06234567901234567,0,0,0.06234567901234567,229.74382716049377,0)" xlink:href="#V"/><use transform="matrix(0.06234567901234567,0,0,0.06234567901234567,242.2129629629629,0)" xlink:href="#U"/><use transform="matrix(0.06234567901234567,0,0,0.06234567901234567,254.68209876543204,0)" xlink:href="#aq"/><use transform="matrix(0.06234567901234567,0,0,0.06234567901234567,267.15123456790116,0)" xlink:href="#ar"/><use transform="matrix(0.06234567901234567,0,0,0.06234567901234567,274.5703703703703,0)" xlink:href="#as"/></g><path fill="#333" d="M232-93c-1 65-40 97-104 97C67 4 28-28 28-90v-158h33c8 89-33 224 67 224 102 0 64-133 71-224h33v155" id="aT"/><g id="y"><use transform="matrix(0.06234567901234567,0,0,0.06234567901234567,0,0)" xlink:href="#aT"/><use transform="matrix(0.06234567901234567,0,0,0.06234567901234567,16.147530864197527,0)" xlink:href="#X"/><use transform="matrix(0.06234567901234567,0,0,0.06234567901234567,27.36975308641975,0)" xlink:href="#V"/><use transform="matrix(0.06234567901234567,0,0,0.06234567901234567,39.83888888888888,0)" xlink:href="#ar"/></g><g id="z"><use transform="matrix(0.06234567901234567,0,0,0.06234567901234567,0,0)" xlink:href="#aT"/><use transform="matrix(0.06234567901234567,0,0,0.06234567901234567,16.147530864197527,0)" xlink:href="#X"/><use transform="matrix(0.06234567901234567,0,0,0.06234567901234567,27.36975308641975,0)" xlink:href="#V"/><use transform="matrix(0.06234567901234567,0,0,0.06234567901234567,39.83888888888888,0)" xlink:href="#ar"/></g><g id="A"><use transform="matrix(0.06234567901234567,0,0,0.06234567901234567,0,0)" xlink:href="#R"/><use transform="matrix(0.06234567901234567,0,0,0.06234567901234567,12.469135802469133,0)" xlink:href="#S"/><use transform="matrix(0.06234567901234567,0,0,0.06234567901234567,24.938271604938265,0)" xlink:href="#X"/></g><g id="B"><use transform="matrix(0.06234567901234567,0,0,0.06234567901234567,0,0)" xlink:href="#X"/><use transform="matrix(0.06234567901234567,0,0,0.06234567901234567,11.22222222222222,0)" xlink:href="#V"/><use transform="matrix(0.06234567901234567,0,0,0.06234567901234567,23.691358024691354,0)" xlink:href="#ao"/><use transform="matrix(0.06234567901234567,0,0,0.06234567901234567,28.61666666666666,0)" xlink:href="#V"/><use transform="matrix(0.06234567901234567,0,0,0.06234567901234567,41.08580246913579,0)" xlink:href="#Y"/><use transform="matrix(0.06234567901234567,0,0,0.06234567901234567,47.320370370370355,0)" xlink:href="#Q"/><use transform="matrix(0.06234567901234567,0,0,0.06234567901234567,58.54259259259258,0)" xlink:href="#Y"/><use transform="matrix(0.06234567901234567,0,0,0.06234567901234567,64.77716049382714,0)" xlink:href="#V"/><use transform="matrix(0.06234567901234567,0,0,0.06234567901234567,77.24629629629626,0)" xlink:href="#aR"/></g><g id="C"><use transform="matrix(0.06234567901234567,0,0,0.06234567901234567,0,0)" xlink:href="#aa"/><use transform="matrix(0.06234567901234567,0,0,0.06234567901234567,16.147530864197527,0)" xlink:href="#S"/><use transform="matrix(0.06234567901234567,0,0,0.06234567901234567,28.61666666666666,0)" xlink:href="#Y"/><use transform="matrix(0.06234567901234567,0,0,0.06234567901234567,34.85123456790123,0)" xlink:href="#V"/><use transform="matrix(0.06234567901234567,0,0,0.06234567901234567,47.32037037037036,0)" xlink:href="#U"/><use transform="matrix(0.06234567901234567,0,0,0.06234567901234567,59.789506172839495,0)" xlink:href="#aq"/><use transform="matrix(0.06234567901234567,0,0,0.06234567901234567,72.25864197530862,0)" xlink:href="#ar"/><use transform="matrix(0.06234567901234567,0,0,0.06234567901234567,79.67777777777775,0)" xlink:href="#as"/></g><g id="D"><use transform="matrix(0.06234567901234567,0,0,0.06234567901234567,0,0)" xlink:href="#az"/><use transform="matrix(0.06234567901234567,0,0,0.06234567901234567,4.925308641975308,0)" xlink:href="#T"/></g><g id="E"><use transform="matrix(0.06234567901234567,0,0,0.06234567901234567,0,0)" xlink:href="#aR"/><use transform="matrix(0.06234567901234567,0,0,0.06234567901234567,12.469135802469133,0)" xlink:href="#V"/></g><path fill="#333" d="M30-248c87 1 191-15 191 75 0 78-77 80-158 76V0H30v-248zm33 125c57 0 124 11 124-50 0-59-68-47-124-48v98" id="aU"/><path fill="#333" d="M30 0v-248h33v221h125V0H30" id="aV"/><g id="F"><use transform="matrix(0.06234567901234567,0,0,0.06234567901234567,0,0)" xlink:href="#aU"/><use transform="matrix(0.06234567901234567,0,0,0.06234567901234567,14.96296296296296,0)" xlink:href="#az"/><use transform="matrix(0.06234567901234567,0,0,0.06234567901234567,19.888271604938268,0)" xlink:href="#aQ"/><use transform="matrix(0.06234567901234567,0,0,0.06234567901234567,32.3574074074074,0)" xlink:href="#V"/><use transform="matrix(0.06234567901234567,0,0,0.06234567901234567,44.82654320987653,0)" xlink:href="#aV"/><use transform="matrix(0.06234567901234567,0,0,0.06234567901234567,57.295679012345666,0)" xlink:href="#az"/><use transform="matrix(0.06234567901234567,0,0,0.06234567901234567,62.22098765432097,0)" xlink:href="#T"/><use transform="matrix(0.06234567901234567,0,0,0.06234567901234567,74.6901234567901,0)" xlink:href="#V"/></g></defs></g></svg>